<?xml version="1.0" standalone="no"?>
<!DOCTYPE svg PUBLIC "-//W3C//DTD SVG 1.1//EN" "http://www.w3.org/Graphics/SVG/1.1/DTD/svg11.dtd" >
<svg xmlns="http://www.w3.org/2000/svg">
<metadata>Generated by IcoMoon</metadata>
<defs>
<font id="mp-icons" horiz-adv-x="1024">
<font-face units-per-em="1024" ascent="960" descent="-64" />
<missing-glyph horiz-adv-x="1024" />
<glyph unicode="&#x20;" horiz-adv-x="512" d="" />
<glyph unicode="&#xe900;" glyph-name="accessibility-1" d="M471.040 943.552c-85.952-7.936-164.288-35.307-233.899-81.707-113.195-75.435-188.629-189.355-214.165-323.392-10.155-53.205-10.155-127.701 0-180.907 25.493-133.76 102.357-249.813 214.677-324.075 83.115-54.955 173.867-82.112 274.347-82.112s191.232 27.157 274.347 82.112c122.795 81.195 202.496 211.456 219.712 359.061 4.949 42.496 2.752 104.832-5.163 146.773-28.48 150.699-125.589 280.96-261.056 350.144-40.32 20.608-69.397 31.531-110.933 41.685-37.12 9.067-62.336 12.011-108.373 12.587-22.997 0.299-45.269 0.235-49.493-0.171zM542.827 816.725c32.811-10.197 60.117-39.275 69.077-73.621 4.245-16.277 2.773-44.629-3.115-59.925-11.989-31.104-34.923-52.715-67.776-63.872-7.019-2.368-14.357-3.179-29.013-3.179s-21.995 0.811-29.013 3.179c-32.853 11.157-55.787 32.768-67.776 63.872-5.888 15.296-7.36 43.648-3.115 59.925 10.219 39.147 42.923 69.931 81.728 76.907 12.608 2.261 36.224 0.683 49.003-3.285zM757.995 567.829c12.096-4.885 24.533-17.557 26.539-27.051 0.768-3.627 1.301-13.547 1.195-22.037-0.235-18.453-4.011-28.608-14.613-39.467-10.56-10.773-21.76-14.741-68.821-24.427-46.443-9.557-52.416-11.84-62.912-24.107-9.365-10.944-11.328-19.008-11.307-46.613 0-29.376 2.987-43.243 15.424-72 4.843-11.157 13.781-31.808 19.883-45.888s17.685-42.112 25.749-62.293c11.861-29.76 14.763-38.805 15.36-47.915 0.917-14.272-3.755-25.941-14.208-35.584-10.24-9.451-21.376-12.373-48.341-12.672-19.371-0.235-22.485 0.149-30.571 3.819-17.259 7.808-21.483 14.357-61.824 96.256-20.181 40.981-37.12 74.517-37.653 74.56-0.512 0.021-17.408-33.515-37.547-74.517-40.235-81.984-44.395-88.469-61.717-96.299-8.085-3.669-11.2-4.053-30.571-3.819-26.965 0.299-38.101 3.221-48.341 12.672-10.453 9.621-15.104 21.312-14.229 35.584 0.576 9.28 3.563 18.325 17.131 52.181 9.024 22.528 23.851 57.856 32.939 78.507s18.368 42.901 20.629 49.451c8.491 24.597 9.984 69.995 2.752 83.861-10.731 20.629-17.941 24.107-72.405 34.987-47.723 9.536-58.688 13.376-69.355 24.256-8.832 9.024-11.755 16.149-13.205 32.064-2.219 24.597 4.757 41.024 21.931 51.648 15.659 9.685 6.677 9.365 257.216 9.045l231.253-0.299 9.621-3.904z" />
<glyph unicode="&#xe901;" glyph-name="accessibility-2" d="M488.149 957.44c-27.84-6.315-43.563-14.976-63.445-34.987-12.373-12.437-16.043-17.472-22.485-30.891-10.432-21.696-13.803-37.952-12.672-61.099 3.2-66.027 56.171-116.373 122.453-116.373 66.219 0 119.275 50.389 122.453 116.373 1.131 23.147-2.24 39.403-12.672 61.099-6.443 13.419-10.112 18.453-22.485 30.891-16.917 17.003-31.488 25.941-52.288 32.085-17.515 5.163-43.307 6.443-58.859 2.901zM212.203 719.723c-16.789-5.995-25.323-15.275-30.187-32.789-6.165-22.357-4.949-40.661 3.648-54.592 2.603-4.203 9.045-11.115 14.315-15.36 5.269-4.224 40.832-24.555 79.019-45.163 60.267-32.491 70.443-38.549 76.992-45.845 4.992-5.547 8.363-11.371 9.963-17.152 1.323-4.821 8.299-69.056 15.488-142.72 14.549-149.291 13.632-144.128 28.16-157.717 24-22.464 62.443-13.163 74.603 18.027 2.517 6.443 3.029 17.685 3.819 85.909 0.725 60.309 1.451 79.424 3.179 82.432 7.893 13.845 33.707 13.845 41.6 0 1.728-3.029 2.432-21.995 3.093-82.432 0.853-78.208 0.875-78.549 4.928-87.509 7.531-16.661 26.517-29.397 43.819-29.397 19.499 0 39.808 15.637 45.333 34.88 0.832 2.859 7.232 63.957 14.251 135.787 7.019 71.808 13.589 134.528 14.592 139.349 2.069 9.941 9.344 21.973 16.491 27.243 2.645 1.941 35.413 20.309 72.853 40.789 37.419 20.48 71.851 40.256 76.501 43.925 20.693 16.363 26.283 40.661 16.576 72.107-3.968 12.821-11.328 21.845-22.635 27.712-7.616 3.947-10.859 4.565-24.149 4.587-14.336 0.043-20.736-1.408-95.573-21.483-87.531-23.488-89.792-24.064-113.493-28.032-22.165-3.712-93.781-5.205-122.411-2.517-31.936 2.987-46.549 6.187-136.533 30.059-89.109 23.659-98.944 25.365-114.24 19.904zM257.515 117.973c-36.544-12.907-59.2-50.112-52.992-87.040 9.493-56.469 71.296-85.632 120.32-56.768 9.685 5.717 23.744 20.203 29.056 29.973 12.629 23.189 12.608 53.909-0.064 77.163-5.077 9.344-19.285 24.021-28.949 29.931-18.368 11.221-46.656 14.037-67.371 6.741zM487.701 118.72c-39.467-12.629-63.573-55.317-53.376-94.507 9.643-36.949 40.171-60.907 77.675-60.907s68.032 23.957 77.675 60.907c10.24 39.381-14.165 82.197-53.931 94.571-13.525 4.224-34.752 4.181-48.043-0.064zM716.459 118.741c-13.333-4.267-22.827-10.155-33.195-20.608-10.368-10.475-16.576-21.248-20.16-35.051-7.189-27.52 0.363-55.893 20.16-75.883 16.299-16.427 34.176-24.064 56.341-24.064 32.107 0 59.136 16.832 72.704 45.248 20.757 43.499-1.216 94.72-47.232 110.101-13.611 4.544-34.837 4.651-48.619 0.256z" />
<glyph unicode="&#xe902;" glyph-name="add-bold" d="M464.213 925.653c-38.763-3.904-57.813-11.52-75.307-30.101-11.669-12.416-19.947-27.349-24.405-44.032-4.693-17.6-8.299-82.304-10.581-189.547l-1.173-54.805-46.229-1.131c-116.693-2.859-181.483-6.315-197.803-10.539-26.389-6.848-50.923-25.557-61.696-47.104-10.496-20.992-14.571-48.981-14.571-100.395 0-71.061 7.552-100.096 32.043-123.136 12.373-11.627 27.328-19.904 43.989-24.363 17.6-4.693 82.304-8.299 189.504-10.581l54.784-1.152 1.152-54.784c2.283-107.2 5.888-171.904 10.581-189.504 4.459-16.661 12.736-31.616 24.363-43.989 23.040-24.491 52.075-32.043 123.136-32.043s100.096 7.552 123.136 32.043c11.627 12.373 19.904 27.328 24.363 43.989 4.693 17.6 8.299 82.304 10.581 189.504l1.152 54.784 54.784 1.152c107.2 2.283 171.904 5.888 189.504 10.581 16.661 4.459 31.616 12.736 43.989 24.363 24.491 23.040 32.043 52.075 32.043 123.136 0 51.413-4.075 79.403-14.571 100.395-10.773 21.547-35.307 40.256-61.696 47.104-16.32 4.224-81.109 7.68-197.803 10.539l-46.229 1.131-1.173 54.805c-2.283 107.243-5.888 171.947-10.581 189.547-9.771 36.608-36.672 62.933-71.552 69.995-28.48 5.76-87.936 7.744-123.733 4.139z" />
<glyph unicode="&#xe903;" glyph-name="add" d="M491.52 926.507c-24.405-4.715-36.757-14.379-44.651-35.008-5.013-13.141-5.973-37.888-8.363-214.805-1.131-84.011-2.325-153.045-2.645-153.408-0.32-0.384-60.928-1.28-134.699-2.027-200.512-2.005-220.821-2.88-238.187-10.347-11.669-5.013-22.549-17.259-26.496-29.76-4.416-14.080-4.501-51.989-0.128-65.813 5.163-16.363 14.4-25.664 32.149-32.469 13.184-5.013 39.531-6.037 215.659-8.384 83.541-1.109 151.979-2.112 152.107-2.219 0.107-0.128 1.109-68.565 2.219-152.107 2.325-175.915 3.349-202.453 8.384-215.659 10.368-27.093 25.365-35.2 65.131-35.2s54.763 8.107 65.131 35.2c5.013 13.184 6.037 39.531 8.384 215.659 1.109 83.541 2.112 151.979 2.219 152.107 0.128 0.107 68.565 1.109 152.107 2.219 176.128 2.347 202.475 3.371 215.659 8.384 17.749 6.805 26.987 16.107 32.149 32.469 4.373 13.824 4.288 51.733-0.128 65.813-3.947 12.501-14.827 24.747-26.496 29.76-17.365 7.467-37.675 8.341-238.187 10.347-73.771 0.747-134.4 1.643-134.72 2.027-0.32 0.363-1.493 69.013-2.603 152.555-2.347 176.128-3.371 202.475-8.384 215.659-9.792 25.579-24.789 34.283-60.864 35.264-11.264 0.299-22.4 0.192-24.747-0.256z" />
<glyph unicode="&#xe904;" glyph-name="ai" d="M213.035 948.096c-8.704-2.645-18.453-9.216-22.677-15.317-2.347-3.371-6.869-12.8-10.069-20.928-12.885-32.832-30.485-59.52-54.72-82.965-23.296-22.528-49.024-38.656-80.491-50.475-19.413-7.275-28.821-16.128-32.939-30.976-2.731-9.813-2.347-16.533 1.579-27.029 4.693-12.523 13.12-19.776 30.848-26.603 67.499-25.92 113.792-72.832 138.176-139.989 4.907-13.504 16.021-25.515 26.517-28.629 10.133-3.008 24.299-2.517 32.235 1.109 11.563 5.269 18.859 14.485 25.749 32.533 24.299 63.68 70.251 109.632 133.931 133.931 18.048 6.891 27.264 14.187 32.533 25.749 3.627 7.936 4.117 22.101 1.109 32.235-3.072 10.368-15.104 21.461-28.651 26.453-44.459 16.32-83.029 44.501-108.8 79.488-10.539 14.315-23.701 39.168-31.211 58.944-4.139 10.923-7.339 16.277-12.885 21.675-10.624 10.304-27.157 14.741-40.235 10.795zM598.848 709.483c-5.504-2.88-11.072-7.531-13.995-11.691-2.944-4.181-14.464-33.835-29.291-75.456-13.44-37.696-27.243-74.496-30.699-81.771-20.288-42.752-56.448-80.299-98.069-101.781-8.917-4.608-46.72-19.221-86.891-33.6-41.941-14.976-73.877-27.371-77.867-30.165-21.568-15.147-21.547-52.245 0.085-67.435 4.096-2.88 34.432-14.656 75.52-29.312 37.781-13.483 74.603-27.328 81.835-30.763 44.736-21.227 84.139-60.651 105.387-105.408 3.456-7.275 17.259-44.075 30.699-81.771 14.827-41.621 26.347-71.275 29.291-75.456 15.275-21.739 52.309-21.803 67.563-0.085 2.88 4.096 14.912 35.136 30.080 77.589 13.888 38.912 28.16 76.501 31.701 83.541 21.355 42.389 57.621 78.507 100.629 100.245 6.635 3.349 43.883 17.451 82.795 31.339 42.453 15.168 73.493 27.2 77.589 30.080 21.632 15.189 21.653 52.288 0.085 67.435-3.989 2.795-35.925 15.189-77.867 30.165-40.171 14.379-77.973 28.992-86.891 33.6-40.619 20.971-75.307 56.405-96.704 98.709-3.349 6.635-17.451 43.883-31.339 82.795-15.168 42.453-27.2 73.493-30.080 77.589-7.019 10.005-20.16 16.363-33.749 16.363-8.405 0-12.672-1.024-19.819-4.757z" />
<glyph unicode="&#xe905;" glyph-name="alarm" d="M497.493 925.291c-11.584-3.84-17.173-7.488-25.259-16.469-12.757-14.187-13.376-17.749-12.8-73.643 0.491-46.613 0.661-48.704 4.459-56.427 5.035-10.219 15.36-20.544 25.579-25.579 11.477-5.653 33.579-5.653 45.056 0 10.219 5.035 20.544 15.36 25.579 25.579 3.797 7.723 3.968 9.813 4.459 56.427 0.427 41.088 0.064 49.664-2.283 56.768-3.819 11.456-16.981 25.557-28.48 30.507-10.859 4.672-26.965 5.931-36.309 2.837zM146.261 780.053c-27.712-9.899-41.536-38.763-32.448-67.755 2.603-8.32 6.293-12.629 40.533-47.275 41.387-41.899 47.296-46.229 65.045-47.659 31.403-2.517 57.387 21.163 57.387 52.267 0 20.928-3.52 26.283-44.352 67.285-41.365 41.579-47.403 45.632-67.584 45.504-6.656-0.021-15.019-1.109-18.581-2.368zM837.973 778.219c-7.317-3.477-17.365-12.416-45.525-40.448-41.579-41.387-45.44-47.168-45.44-68.224 0-38.72 42.197-64.64 76.459-46.976 11.307 5.803 79.083 73.813 84.565 84.843 5.269 10.539 6.357 27.541 2.539 39.061-4.032 12.139-13.867 23.936-24.939 29.973-7.765 4.224-11.605 5.141-23.765 5.632-12.821 0.533-15.595 0.085-23.893-3.861zM474.453 695.317c-45.803-5.909-93.056-23.659-130.56-49.045-70.528-47.787-116.587-120.64-130.091-205.696-5.248-33.003-3.691-185.579 2.347-232.043l1.067-8.192 47.125 0.96c25.92 0.533 75.285 1.429 109.696 2.005l62.571 1.024 0.917 15.595c0.512 8.576 1.771 32.043 2.795 52.139 2.091 40.128 3.243 45.035 12.309 51.947 12.437 9.493 17.6 10.389 59.371 10.389 32.448 0 39.573-0.448 45.973-2.965 10.411-4.096 18.816-10.859 21.525-17.344 1.387-3.328 2.987-19.563 4.139-42.005 1.045-20.117 2.304-43.584 2.816-52.16l0.939-15.595 62.571-1.024c34.411-0.576 83.797-1.472 109.76-2.005l47.168-0.981 1.109 9.92c4.971 44.992 7.659 163.883 4.587 203.819-3.883 50.837-16.917 94.080-40.32 133.867-48.299 82.048-129.963 135.723-224.384 147.456-16.64 2.069-57.152 2.027-73.429-0.064zM37.547 431.36c-11.051-3.883-25.92-19.264-29.739-30.741-8.96-27.008 3.285-55.552 28.885-67.307 8.107-3.733 10.795-3.947 53.717-4.459 29.333-0.341 47.893 0.128 52.907 1.365 10.645 2.645 24.384 12.075 30.485 20.971 19.051 27.669 9.515 63.765-20.8 78.869l-8.597 4.288-49.6-0.128c-40.64-0.107-50.965-0.619-57.259-2.859zM870.997 430.059c-30.315-15.104-39.851-51.2-20.8-78.869 6.101-8.896 19.84-18.325 30.485-20.971 5.013-1.237 23.573-1.707 52.907-1.365 42.923 0.512 45.611 0.725 53.717 4.459 19.264 8.832 31.701 27.797 31.808 48.427 0.064 15.552-4.373 26.304-15.445 37.355-14.784 14.784-17.109 15.253-75.221 15.253-48.747 0-48.853 0-57.451-4.288zM244.053 137.301c-83.52-2.027-100.096-4.267-117.099-15.723-11.392-7.659-14.187-13.376-16.299-33.152-2.069-19.456-0.725-73.28 2.091-83.307 2.261-8.064 10.133-16.896 19.221-21.589 24.768-12.757 62.016-14.144 380.032-14.144 355.072 0 371.861 1.045 392.939 24.363 8.021 8.875 9.024 16.085 8.875 64.277-0.171 49.749-2.133 56-20.821 66.176-13.248 7.211-28.864 9.941-66.965 11.733-45.845 2.133-506.112 3.221-581.973 1.365z" />
<glyph unicode="&#xe906;" glyph-name="alert-circle" d="M482.133 947.072c-3.755-0.384-15.275-1.536-25.6-2.56-55.232-5.525-115.968-23.296-167.253-48.96-144.917-72.512-245.141-207.829-272.043-367.339-22.208-131.584 11.904-272.427 91.925-379.563 85.376-114.347 209.685-185.344 351.637-200.853 23.061-2.517 79.339-2.517 102.4 0 141.824 15.509 266.325 86.613 351.637 200.853 47.744 63.893 80.533 142.805 93.013 223.723 19.691 127.531-13.056 261.973-89.451 367.467-81.984 113.216-205.035 186.176-344.107 204.075-18.56 2.389-78.955 4.459-92.16 3.157zM415.445 708.416c15.275-4.267 24.619-11.819 31.701-25.664 5.12-10.005 6.059-13.696 6.571-25.771 0.917-21.717-9.771-150.549-16.96-204.544-3.861-28.992-7.509-39.253-17.003-47.829-8.576-7.744-15.488-9.6-40.085-10.709-48.064-2.197-63.808 7.509-69.803 43.051-6.379 37.867-18.432 172.651-18.709 209.024-0.171 23.381 0.085 25.259 4.309 34.133 7.787 16.363 19.179 25.131 37.333 28.8 5.163 1.045 10.923 2.24 12.8 2.645 8.491 1.92 60.075-0.405 69.845-3.136zM693.76 708.693c17.643-5.077 27.371-13.077 34.773-28.587 4.245-8.875 4.459-10.731 4.267-34.133-0.299-36.949-12.309-171.307-18.667-209.024-5.995-35.541-21.739-45.248-69.803-43.051-11.307 0.512-23.488 1.813-27.072 2.88-8.96 2.688-18.816 12.075-23.061 21.973-4.523 10.496-9.067 44.373-15.573 116.075-10.837 119.595-10.987 131.157-1.707 148.565 12.373 23.189 29.909 29.483 79.296 28.395 18.219-0.405 32.192-1.557 37.547-3.093zM404.907 321.237c37.483-18.539 52.16-62.144 33.6-99.861-22.869-46.421-84.032-55.232-120.576-17.365-30.763 31.872-24.512 87.488 12.587 112.128 15.104 10.027 24.405 12.544 44.245 11.968 15.957-0.448 18.176-0.96 30.144-6.869zM683.627 321.792c61.141-30.101 54.165-118.272-10.944-138.389-42.731-13.205-86.955 15.083-94.464 60.416-5.803 35.008 15.36 69.141 50.667 81.728 6.549 2.347 12.587 2.944 25.728 2.56 15.552-0.448 18.261-1.024 29.013-6.315z" />
<glyph unicode="&#xe907;" glyph-name="ambulance" d="M236.373 926.549c-63.723-2.048-112.661-4.672-122.88-6.635-44.885-8.576-80.939-41.301-92.843-84.331-8-28.864-10.368-98.112-10.368-303.104 0-193.365 2.347-261.675 11.072-320.469 4.395-29.675 16.021-52.288 37.355-72.533 11.136-10.581 31.637-24.277 36.331-24.277 0.939 0 3.029 6.72 4.629 14.933 6.357 32.427 21.824 60.736 46.976 85.888 24.619 24.619 52.544 40.107 84.608 46.891 16.448 3.499 51.84 4.011 66.56 0.96 61.056-12.629 109.227-53.845 129.536-110.848 4.949-13.845 9.557-37.589 9.557-49.131v-7.467h149.675l1.088 14.165c4.523 58.688 40.363 111.253 94.144 138.112 24.896 12.437 46.485 17.323 75.947 17.195 47.915-0.192 85.632-15.936 119.595-49.877 24.683-24.704 40.341-52.971 46.784-84.565 1.515-7.467 3.072-13.888 3.435-14.251 1.984-2.005 24.171 14.208 36.736 26.88 25.323 25.472 33.579 46.379 38.251 96.853 7.36 79.829 13.099 224.981 9.856 249.941-3.819 29.483-15.211 54.613-45.717 100.757-34.773 52.629-73.899 94.784-118.421 127.637-30.976 22.827-48.725 28.565-95.637 30.848-17.365 0.832-33.237 1.557-35.285 1.6-4.139 0.064-3.947-1.131-7.296 46.144-2.005 28.245-6.016 44.907-14.891 61.803-11.797 22.421-37.803 45.333-61.632 54.315-15.509 5.824-32.683 8.213-73.749 10.24-35.669 1.749-285.077 3.541-323.413 2.325zM384.981 761.109c5.141-3.179 10.283-8.341 13.483-13.504l5.163-8.341 0.853-49.621 0.853-49.643 99.264-1.707 8.341-5.163c5.184-3.2 10.325-8.341 13.525-13.525 4.651-7.509 5.163-9.749 5.163-22.272s-0.512-14.763-5.184-22.315c-5.824-9.451-18.859-18.368-29.355-20.096-3.52-0.597-25.771-1.088-49.451-1.088l-43.008-0.021-0.512-49.195-0.491-49.216-5.184-8.384c-5.824-9.451-18.88-18.389-29.312-20.075-15.616-2.539-33.536 5.973-42.24 20.075l-5.184 8.384-0.491 49.216-0.512 49.195-43.008 0.021c-23.68 0-45.931 0.491-49.451 1.088-10.496 1.728-23.531 10.645-29.355 20.096-4.672 7.552-5.184 9.792-5.184 22.315s0.512 14.763 5.163 22.272c3.2 5.184 8.341 10.325 13.525 13.525l8.341 5.163 99.264 1.707 1.707 98.987 4.693 8c8.363 14.208 20.352 20.416 38.144 19.733 10.005-0.384 13.547-1.365 20.437-5.611zM776 636.587c30.507-9.067 79.701-59.008 110.101-111.787 12.928-22.421 14.165-26.112 14.144-41.813-0.021-10.304-0.917-15.616-3.691-21.632-5.483-11.947-16.064-22.443-28.096-27.819-18.176-8.171-63.275-9.323-126.059-3.2-35.52 3.456-45.973 8.256-55.189 25.344-3.627 6.699-3.691 8.277-3.691 80.213 0 72.256 0.064 73.493 3.733 80.384 4.245 7.915 13.952 17.067 21.739 20.459 7.701 3.349 55.595 3.243 67.008-0.149zM238.784 209.877c-41.621-10.112-76.395-45.205-86.165-86.997-3.2-13.739-3.584-38.784-0.768-51.115 9.451-41.451 39.104-74.112 79.403-87.467 11.755-3.904 16.619-4.544 34.987-4.608 24.576-0.107 33.835 2.112 55.467 13.184 18.837 9.664 38.421 29.248 48.085 48.085 11.072 21.632 13.291 30.891 13.184 55.467-0.064 18.347-0.704 23.253-4.587 34.987-12.885 39.040-43.392 67.712-82.731 77.76-15.275 3.904-42.304 4.245-56.875 0.704zM727.68 209.195c-50.091-13.525-84.352-55.851-87.147-107.648-2.475-45.952 22.997-89.429 64.363-109.845 20.757-10.261 36.523-13.653 57.984-12.501 46.251 2.496 86.251 30.848 102.933 72.939 6.357 16.064 8.256 26.027 8.32 43.435 0.085 32.235-11.093 59.563-33.557 81.92-15.317 15.275-27.093 22.891-45.547 29.44-17.216 6.101-49.173 7.189-67.349 2.261z" />
<glyph unicode="&#xe908;" glyph-name="anchor" d="M490.688 947.861c-28.821-3.029-64.149-17.237-88.192-35.477-35.328-26.795-60.459-67.392-68.736-111.125-3.051-16.021-3.456-45.141-0.875-61.419 9.237-58.176 48.235-110.4 101.035-135.317l11.52-5.44v-97.643l-35.627-1.067c-41.707-1.237-50.005-3.349-63.637-16.107-11.925-11.157-15.083-20.864-15.083-46.293 0-12.459 0.917-23.211 2.411-28.181 3.605-11.989 12.843-22.123 26.069-28.629 11.051-5.44 12.011-5.611 41.344-6.784 16.512-0.683 33.28-1.28 37.269-1.344l7.253-0.128v-98.987c0-90.347-0.235-98.987-2.773-98.987-5.803 0-43.221 9.088-61.227 14.869-121.344 38.997-207.872 127.573-215.147 220.309l-1.045 13.141 17.195 23.040c9.472 12.651 18.368 26.432 19.776 30.592 7.061 20.715-2.176 55.723-18.283 69.333-17.707 14.933-34.539 16.363-67.52 5.696-36.928-11.925-54.549-23.424-68.331-44.587-12.267-18.816-14.379-27.136-15.253-59.819-1.045-39.915 3.307-74.005 14.421-113.003 43.904-153.899 185.664-276.096 360.192-310.485l20.075-3.968 28.16-28.096c26.88-26.859 50.133-45.717 56.32-45.717s29.44 18.859 56.32 45.717l28.16 28.096 20.075 3.968c145.536 28.672 270.912 119.467 332.544 240.768 29.803 58.688 43.691 118.955 42.112 182.72-0.64 26.112-1.131 29.696-5.291 40.384-8.939 22.848-25.707 41.429-47.168 52.203-5.205 2.624-19.221 7.936-31.168 11.797-32.939 10.688-49.792 9.28-67.52-5.675-16.107-13.611-25.344-48.619-18.283-69.333 1.408-4.16 10.304-17.941 19.776-30.592l17.195-23.040-1.045-13.141c-7.275-92.693-93.845-181.333-215.147-220.309-18.005-5.781-55.424-14.869-61.227-14.869-2.539 0-2.773 8.64-2.773 98.987v98.987l7.253 0.128c3.989 0.064 20.693 0.683 37.12 1.344 26.923 1.131 30.784 1.664 39.253 5.589 12.629 5.845 18.816 11.392 24.811 22.229 4.779 8.619 5.077 10.368 5.632 32.149 0.704 28.629-2.069 38.016-14.805 49.92-13.632 12.757-21.931 14.869-63.637 16.107l-35.627 1.067v97.643l11.52 5.44c35.008 16.512 65.621 46.4 83.243 81.301 13.653 27.029 19.541 52.075 19.563 83.264 0.064 91.904-70.272 169.451-162.24 178.901-19.072 1.941-20.331 1.941-39.957-0.128zM533.269 821.952c10.133-4.48 20.821-14.592 26.219-24.832 4.224-7.979 4.565-10.219 4.565-29.12s-0.341-21.141-4.544-29.013c-10.133-19.008-26.432-28.949-47.509-28.949s-37.376 9.941-47.509 28.949c-4.203 7.872-4.544 10.112-4.544 29.013s0.341 21.141 4.565 29.12c7.253 13.739 20.544 24.363 35.051 27.989 8.896 2.24 24.939 0.725 33.707-3.157z" />
<glyph unicode="&#xe909;" glyph-name="anxiety" d="M434.347 928.213c-103.296-5.973-201.195-51.285-271.253-125.568-57.813-61.269-93.333-134.848-106.155-219.819-3.669-24.235-4.117-80.491-0.853-104.107 17.216-124.587 82.325-232.491 179.221-297.067l18.133-12.096 0.853-74.539c0.853-73.771 0.896-74.624 4.885-83.435 5.227-11.584 17.579-23.104 28.48-26.56 35.797-11.371 143.189-18.795 220.352-15.232 65.344 3.029 119.509 9.813 135.872 17.067 9.6 4.245 18.304 12.949 23.509 23.552 3.904 7.936 4.139 10.304 4.715 46.336 0.341 20.885 1.195 37.973 1.92 37.973 0.704 0 20.416-2.773 43.797-6.144 49.536-7.168 60.16-7.125 75.264 0.256 5.419 2.667 13.568 8.533 18.091 13.056 14.549 14.549 15.339 17.493 28.949 108.011l12.203 81.216 12.032 3.627c22.976 6.933 66.368 23.488 72.96 27.84 23.723 15.723 37.355 46.208 32.448 72.597-3.563 19.179-9.899 28.885-61.419 94.059l-49.472 62.592-1.173 16.768c-5.269 75.221-32.363 144.341-80.853 206.229-15.339 19.563-50.88 53.589-74.027 70.869-57.216 42.731-124.309 70.315-192.533 79.168-20.651 2.688-58.645 4.352-75.947 3.349zM507.435 765.312c13.248-3.669 23.403-17.472 23.296-31.637-0.085-12.395-11.349-26.475-23.509-29.397-3.477-0.832-14.528-3.477-24.555-5.867-32.107-7.637-62.315-24.256-84.224-46.357-21.76-21.931-35.712-47.211-44.757-81.045-3.819-14.293-4.352-19.755-4.352-43.648 0-22.549 0.64-29.696 3.669-40.96 15.573-57.984 67.307-98.027 127.424-98.624 21.568-0.213 33.792 2.389 52.053 11.093 35.499 16.939 57.771 54.421 56.021 94.272-0.576 12.885-1.579 17.344-6.037 26.88-5.632 12.053-16.875 24.768-26.091 29.525-14.741 7.616-36.075 4.117-46.72-7.68-7.296-8.064-8.939-15.68-6.315-29.056 3.371-17.152-2.347-30.933-15.701-37.739-16.533-8.448-34.88-2.112-43.221 14.912-3.904 8-4.8 12.437-5.44 26.901-1.408 31.637 5.504 49.963 26.816 71.061 20.331 20.16 42.197 29.013 71.552 29.013 20.331 0 30.613-2.283 47.509-10.496 32.405-15.808 58.155-51.285 65.472-90.197 2.965-15.787 2.475-46.123-1.024-61.44-22.059-97.216-116.693-151.104-218.517-124.437-56.384 14.763-107.563 58.389-129.493 110.379-10.816 25.685-16.192 54.080-16.235 86.037-0.171 91.605 47.701 172.629 125.611 212.608 19.968 10.261 46.763 19.797 68.053 24.213 18.645 3.883 20.459 3.989 28.715 1.685z" />
<glyph unicode="&#xe90a;" glyph-name="archive" d="M428.373 906.048c-129.92-1.963-282.24-10.944-315.115-18.581-47.637-11.029-84.992-47.851-96.107-94.72-5.355-22.507-7.851-55.36-5.376-70.379 4.992-30.165 26.069-56 54.507-66.752l9.664-3.669h872.107l9.664 3.669c28.437 10.752 49.515 36.587 54.507 66.752 2.475 15.019-0.021 47.872-5.376 70.379-11.115 46.869-48.469 83.691-96.107 94.72-23.616 5.483-124.459 12.907-219.541 16.149-52.821 1.792-209.301 3.264-262.827 2.432zM95.595 467.2c0.043-194.027 5.141-330.837 13.589-363.947 12.736-49.92 50.816-88 100.736-100.736 20.565-5.248 78.613-9.003 184.32-11.904 162.581-4.459 379.819 1.685 419.84 11.904 55.744 14.229 95.936 59.477 103.979 117.099 5.952 42.539 10.347 190.656 10.347 349.291l0.021 117.333h-832.853l0.021-119.040zM645.675 499.264c16.789-1.301 21.995-2.411 31.019-6.635 13.333-6.251 24.341-16.149 30.507-27.456 9.323-17.152 9.941-57.813 1.131-75.072-7.68-15.061-21.12-26.24-39.467-32.875l-10.944-3.947h-291.84l-10.795 3.904c-18.944 6.848-31.723 17.472-39.595 32.853-8.832 17.344-8.213 57.984 1.152 75.2 6.144 11.285 17.152 21.163 30.656 27.477 8.789 4.117 14.485 5.44 27.627 6.443 24.277 1.835 246.933 1.941 270.549 0.107z" />
<glyph unicode="&#xe90b;" glyph-name="arrow-backward-bold" d="M278.187 896.235c-17.365-3.947-25.771-10.027-72.533-52.437-66.432-60.245-133.227-138.987-143.211-168.811-7.211-21.525-5.12-47.957 5.632-70.827 8.704-18.581 46.613-66.56 89.152-112.853 37.333-40.619 90.837-89.429 106.453-97.109 16.043-7.872 33.045-8.789 49.259-2.603 15.829 6.016 45.227 32.192 55.189 49.109 4.224 7.211 4.779 9.813 4.757 22.656-0.043 21.611-3.669 27.819-36.096 61.781l-26.56 27.819 155.072 0.469c89.664 0.277 163.413-0.213 174.848-1.173 42.88-3.563 77.653-18.005 105.536-43.819 32.128-29.739 50.197-70.336 52.523-117.952 4.48-91.477-47.68-166.165-131.755-188.693-13.419-3.605-16.64-3.691-193.707-4.672-193.941-1.067-184.043-0.555-203.093-10.304-14.571-7.467-25.109-18.88-29.845-32.299-7.317-20.757-6.571-63.595 1.451-81.088 7.957-17.408 21.632-28.437 43.755-35.307l12.8-3.989h182.613c201.387 0 197.675-0.171 242.347 11.072 108.053 27.2 192.96 103.872 229.376 207.147 22.869 64.875 27.371 145.643 11.968 215.147-29.483 133.205-130.219 234.901-258.752 261.248-35.435 7.253-47.659 7.68-223.616 7.68h-168.128l24.533 25.259c30.571 31.509 34.709 38.656 34.731 60.139 0.021 13.653-0.363 15.211-5.952 24.491-10.347 17.152-39.381 42.005-55.872 47.829-10.261 3.605-22.699 4.416-32.875 2.091z" />
<glyph unicode="&#xe90c;" glyph-name="arrow-backward" d="M336.213 947.861c-5.163-0.853-14.037-3.819-19.691-6.592-26.859-13.12-133.163-111.915-192.875-179.243-56.043-63.211-99.307-123.051-107.307-148.416-11.093-35.221-5.824-64.96 17.899-100.757 55.701-84.096 148.139-188.011 235.179-264.363 44.885-39.36 52.864-43.691 80.576-43.691 15.787 0 16.832 0.235 30.72 7.189 37.739 18.837 83.264 65.003 93.867 95.168 6.144 17.493 2.965 40.149-8.128 57.728-2.453 3.883-16.064 19.264-30.229 34.176s-30.272 32.064-35.776 38.101l-10.027 10.987 123.52-0.597c122.539-0.597 123.605-0.619 137.152-4.48 46.827-13.355 78.251-40.704 92.651-80.683 4.096-11.392 4.501-14.827 4.565-38.123 0.064-23.744-0.299-26.709-4.885-40.704-11.392-34.773-39.851-63.829-76.288-77.867-23.595-9.109-32.128-10.475-74.923-11.989-42.859-1.515-52.309-3.093-69.568-11.541-12.459-6.080-25.813-18.368-31.68-29.163-2.581-4.736-6.357-15.744-8.405-24.491-3.264-13.909-3.733-20.629-3.669-54.272 0.043-32.597 0.597-41.088 3.733-56.149 6.613-31.808 18.155-49.173 40.619-61.056 17.92-9.493 26.027-11.115 59.947-12.053 101.611-2.795 188.309 21.099 263.317 72.555 54.272 37.248 100.117 90.027 127.104 146.304 46.272 96.555 48.277 207.403 5.547 306.816-48.853 113.685-159.979 200.448-288.811 225.536-33.451 6.507-37.077 6.677-169.152 7.68l-131.627 0.981 34.901 36.693c38.976 40.96 45.163 48.96 50.027 64.597 6.848 22.059 3.499 38.976-12.48 63.061-18.304 27.584-63.296 66.219-87.787 75.371-10.432 3.883-26.069 5.248-38.016 3.285z" />
<glyph unicode="&#xe90d;" glyph-name="arrow-down-bold" d="M464.213 947.968c-14.549-0.683-30.293-2.155-34.987-3.243-35.029-8.149-64.597-38.357-74.155-75.733-4.224-16.469-10.411-117.525-16.213-264.832-3.477-87.765-4.16-101.931-5.099-102.848-0.427-0.448-9.856 7.189-20.928 16.939-36.352 32.021-55.851 48.491-64.128 54.123-34.496 23.509-76.821 27.179-110.293 9.579-26.005-13.696-61.973-45.739-80.64-71.829-13.269-18.56-20.757-32.811-27.285-51.883-10.069-29.461-6.891-58.325 9.664-88.064 11.2-20.096 55.616-75.904 102.4-128.683 30.635-34.56 129.579-133.035 171.584-170.795 32.064-28.821 79.488-69.973 101.888-88.405 41.899-34.496 99.413-43.733 150.208-24.149 18.432 7.104 33.557 17.323 64.384 43.477 137.408 116.629 256.768 238.251 332.864 339.157 26.688 35.371 35.456 56.619 35.499 85.888 0.021 12.885-0.875 17.984-5.504 31.552-6.549 19.2-15.659 36.224-29.035 54.251-19.157 25.835-53.611 56.192-78.848 69.483-28.693 15.083-63.253 14.741-95.061-0.939-16.128-7.936-21.077-11.755-66.603-51.584-18.133-15.851-33.323-28.501-33.728-28.075-0.96 0.96-2.005 20.907-4.181 80.619-5.205 142.379-12.821 270.379-17.067 286.955-9.557 37.376-39.403 67.861-74.176 75.755-18.027 4.096-80.235 5.653-130.56 3.285z" />
<glyph unicode="&#xe90e;" glyph-name="arrow-down" d="M476.16 915.776c-24.512-3.456-42.688-19.285-51.221-44.587-3.029-9.024-3.925-17.259-5.184-48.491-4.096-102.229-9.387-291.797-11.904-427.605-1.003-53.973-1.963-102.507-2.155-107.84l-0.363-9.707-51.2 41.856c-28.16 22.997-55.445 44.011-60.651 46.656-28.373 14.485-52.608 9.259-81.216-17.493-12.245-11.456-26.901-32.192-29.568-41.835-4.565-16.448-0.683-37.44 9.856-53.12 12.693-18.901 95.339-101.589 147.093-147.157 53.867-47.424 119.467-97.856 137.856-105.984 27.925-12.373 57.493-10.731 82.901 4.587 41.301 24.875 110.357 83.136 180.075 151.915 60.224 59.456 89.387 91.648 96.341 106.432 6.677 14.187 8.149 31.317 3.797 44.395-6.165 18.56-29.632 45.035-51.136 57.685-18.688 10.987-38.144 11.179-58.965 0.597-5.205-2.645-32.491-23.659-60.651-46.677l-51.2-41.856-1.152 56.64c-3.947 194.795-7.744 336.704-12.395 462.827-2.069 56.619-2.688 64.277-6.016 74.091-6.784 20.032-20.032 34.645-37.483 41.301-8.299 3.179-13.76 3.712-42.795 4.181-18.304 0.277-37.504-0.064-42.667-0.811z" />
<glyph unicode="&#xe90f;" glyph-name="arrow-forward-bold" d="M663.040 948.117c-12.053-1.877-19.691-5.44-38.699-18.112-29.547-19.648-58.731-50.773-71.723-76.459-10.091-19.947-7.979-45.141 5.483-65.536 3.541-5.376 22.165-26.283 41.387-46.464l34.944-36.693-131.627-0.96c-138.197-1.024-137.856-1.003-176.725-9.237-44.437-9.429-92.075-28.651-131.691-53.163-133.12-82.325-200.683-230.485-174.613-382.933 20.416-119.339 104.619-224.683 221.12-276.587 61.077-27.221 125.056-39.061 199.915-36.992 33.92 0.939 42.027 2.56 59.947 12.053 31.467 16.64 42.816 44.224 44.8 108.672 0.853 27.328 0.491 34.432-2.645 52.907-5.824 34.304-16.469 50.688-40.917 63.040-17.813 8.981-26.688 10.517-70.208 12.053-42.795 1.515-51.328 2.88-74.923 11.989-36.053 13.909-64.491 42.645-76.075 76.928-6.229 18.411-7.808 48.235-3.627 67.968 9.259 43.84 44.523 77.867 95.744 92.48 13.547 3.861 14.613 3.883 137.152 4.48l123.52 0.597-10.027-10.987c-5.504-6.037-21.611-23.189-35.776-38.101s-27.776-30.293-30.229-34.176c-10.901-17.28-14.272-40.555-8.341-57.707 10.197-29.504 56.64-76.501 94.080-95.189 14.101-7.061 14.699-7.189 31.573-7.104 26.944 0.149 34.176 3.925 73.579 38.293 91.819 80.107 187.029 186.645 242.283 271.104 22.699 34.688 27.819 64.747 16.939 99.328-10.795 34.261-79.211 121.984-156.821 201.088-45.973 46.827-113.216 107.541-134.805 121.685-15.467 10.133-35.157 14.485-52.992 11.733z" />
<glyph unicode="&#xe910;" glyph-name="arrow-forward" d="M721.92 896.683c-21.781-4.267-56.384-32.576-67.477-55.253-4.096-8.405-4.544-10.944-3.84-21.845 1.28-19.691 6.528-28.309 35.243-57.899l24.533-25.259h-168.128c-104.149 0-174.848-0.683-185.813-1.771-125.397-12.629-231.083-91.627-277.781-207.637-21.824-54.187-30.293-107.627-27.136-171.179 7.573-152.747 105.152-274.027 250.027-310.741 43.733-11.093 40.683-10.965 242.88-10.965h183.467l13.419 4.757c31.168 11.008 43.776 27.157 47.189 60.437 1.984 19.157 0.192 41.643-4.395 55.424-5.291 15.979-23.915 31.808-45.973 39.125-5.419 1.792-44.139 2.453-186.88 3.243-177.067 0.981-180.288 1.067-193.707 4.672-61.397 16.448-106.752 60.928-124.373 121.984-16.427 56.896-6.272 121.195 25.813 163.477 29.205 38.443 71.701 60.565 124.864 65.003 11.435 0.96 85.184 1.451 174.805 1.173l155.029-0.469-26.453-27.669c-32.405-33.92-36.139-40.299-36.139-61.931 0-12.821 0.555-15.445 4.779-22.656 9.941-16.917 39.339-43.072 55.189-49.131 16.149-6.165 33.173-5.248 49.259 2.624 15.531 7.616 68.821 56.213 106.517 97.109 41.045 44.523 81.344 95.744 89.685 113.92 10.155 22.229 12.075 48.725 5.035 69.76-9.92 29.632-77.632 109.483-143.211 168.853-47.893 43.349-56.533 49.429-75.051 52.864-11.2 2.069-10.709 2.069-21.376-0.021z" />
<glyph unicode="&#xe911;" glyph-name="arrow-left-bold" d="M477.867 934.208c-24.704-2.603-43.221-11.733-77.995-38.464-88.405-67.968-185.152-160.363-283.648-270.912-38.763-43.477-71.701-82.859-80.533-96.256-29.44-44.715-31.659-104.683-5.611-152.149 7.189-13.099 16.192-24.875 43.179-56.427 112.533-131.627 228.459-245.056 327.637-320.619 38.976-29.696 58.581-38.208 88.064-38.293 14.827-0.043 19.2 0.661 33.259 5.44 26.155 8.917 49.088 22.933 72.128 44.096 25.579 23.509 49.195 54.613 57.024 75.072 9.344 24.469 7.019 56.469-6.059 83.52-7.488 15.445-12.843 22.357-51.989 67.136-15.765 18.027-28.309 33.109-27.883 33.536 0.896 0.896 11.968 1.451 101.013 4.971 149.035 5.888 250.283 12.053 266.624 16.235 39.531 10.112 68.608 40.235 76.736 79.552 4.075 19.755 4.075 135.168-0.021 155.008-8.277 40.128-40.363 72.064-80.512 80.107-20.309 4.075-287.787 18.027-345.621 18.027-9.259 0-17.301 0.747-17.877 1.664-0.555 0.917 11.925 16.469 27.733 34.56 38.933 44.523 43.883 50.816 50.901 64.768 15.936 31.659 16.853 66.859 2.496 95.637-10.752 21.547-43.243 59.307-66.261 76.992-27.797 21.355-59.584 35.627-83.157 37.333-4.693 0.341-13.525 0.107-19.627-0.533z" />
<glyph unicode="&#xe912;" glyph-name="arrow-left" d="M332.352 774.976c-12.651-5.205-15.851-7.381-31.68-21.355-41.301-36.501-99.755-95.339-143.36-144.341-38.059-42.731-81.856-99.477-91.584-118.613-12.181-23.936-12.629-51.477-1.259-77.163 8.128-18.389 58.603-84.053 105.984-137.856 45.355-51.499 128.363-134.443 147.264-147.157 17.067-11.477 39.083-14.763 55.979-8.341 26.048 9.877 58.411 44.693 63.36 68.117 2.56 12.203 0.384 26.667-5.995 39.68-2.496 5.099-23.616 32.704-46.955 61.333l-42.411 52.053 55.701 1.152c203.541 4.224 331.861 7.659 462.763 12.395 57.493 2.069 65.109 2.688 74.944 6.016 19.904 6.741 34.389 19.797 41.515 37.483 3.584 8.917 3.84 11.989 3.84 49.621 0 37.867-0.235 40.661-3.925 49.835-7.125 17.728-25.323 33.195-45.547 38.741-10.517 2.88-221.333 10.027-410.453 13.888-51.157 1.045-112.341 2.432-135.957 3.051l-42.944 1.152 42.453 52.053c23.339 28.629 44.48 56.235 46.976 61.333 6.379 13.013 8.555 27.477 5.995 39.68-5.035 23.829-38.784 59.541-65.045 68.821-11.029 3.883-28.011 3.2-39.659-1.579z" />
<glyph unicode="&#xe913;" glyph-name="arrow-reload" d="M674.752 927.552c-22.741-3.264-59.904-33.856-65.515-53.931-2.944-10.453-1.408-25.451 3.733-36.501 2.539-5.483 11.989-18.133 22.699-30.4 10.091-11.563 17.941-21.419 17.451-21.909s-87.168-1.6-192.619-2.432c-301.333-2.432-285.077-2.091-300.928-6.4-59.349-16.171-109.205-64.875-128.789-125.867-9.067-28.181-9.451-32.981-9.451-115.925 0-74.645 0.107-77.141 3.797-88.875 7.595-24.107 21.013-34.816 48.256-38.485 17.856-2.389 50.56-0.981 62.635 2.709 19.285 5.888 32.64 23.168 36.309 46.997 0.96 6.101 1.728 39.509 1.749 74.24 0.043 62.592 0.064 63.211 4.032 71.68 4.821 10.304 12.736 18.325 23.189 23.467l7.765 3.84 190.272-0.619c104.661-0.341 205.504-1.109 224.085-1.707l33.813-1.088-19.947-23.040c-11.691-13.504-21.739-26.923-24.299-32.427-5.163-11.051-6.699-26.027-3.755-36.501 4.331-15.509 26.795-37.141 51.157-49.28 9.6-4.779 12.672-5.461 23.893-5.355 18.261 0.171 28.395 4.608 48.896 21.419 23.744 19.477 75.413 71.829 94.891 96.171 40.064 50.048 50.859 71.723 50.859 102.123 0 28.139-7.061 46.251-31.381 80.491-29.888 42.069-61.013 77.632-97.472 111.36-35.669 32.981-49.984 39.872-75.328 36.245zM899.413 488.704c-27.541-3.84-42.944-19.755-47.68-49.237-1.003-6.251-1.792-38.699-1.813-74.24-0.043-62.592-0.064-63.211-4.032-71.68-5.632-12.053-17.259-22.187-29.547-25.771-9.216-2.688-24.619-2.795-213.035-1.6-111.701 0.725-210.645 1.792-219.883 2.389l-16.789 1.088 20.011 23.040c11.776 13.589 21.781 26.901 24.363 32.427 5.163 11.051 6.699 26.027 3.755 36.501-4.288 15.36-26.773 37.12-50.645 49.024-9.024 4.501-12.352 5.227-23.893 5.227-21.696-0.021-29.675-4.011-59.477-29.739-40.085-34.624-87.531-87.253-113.579-125.973-17.344-25.813-22.059-39.445-22.080-63.957-0.043-27.648 7.147-46.101 31.061-79.723 26.603-37.376 42.987-56.683 77.227-90.987 49.557-49.6 62.059-57.877 87.275-57.813 10.176 0.021 13.888 0.896 23.040 5.461 24.064 11.989 46.784 33.92 51.093 49.28 2.923 10.432 1.365 25.429-3.755 36.459-2.517 5.44-12.075 18.261-22.656 30.443-10.069 11.563-17.941 21.419-17.493 21.867s106.688 1.515 236.096 2.389c249.067 1.643 242.773 1.429 267.648 9.515 4.715 1.536 15.872 6.507 24.789 11.051 57.088 29.099 96.043 87.616 102.507 153.963 1.131 11.584 1.6 45.291 1.216 85.653-0.597 63.019-0.832 67.157-4.373 77.824-5.056 15.189-13.44 25.792-24.661 31.168-14.976 7.211-47.232 9.771-74.688 5.952z" />
<glyph unicode="&#xe914;" glyph-name="arrow-right-bold" d="M523.093 934.315c-30.464-3.093-70.187-25.237-101.781-56.768-17.6-17.579-38.336-44.437-44.736-57.963-13.824-29.227-12.736-63.531 3.008-94.805 7.019-13.952 11.968-20.245 50.901-64.768 15.808-18.091 28.288-33.643 27.733-34.56-0.576-0.917-8.619-1.664-17.877-1.664-57.835 0-325.312-13.952-345.621-18.027-36.245-7.275-68.117-36.011-78.4-70.72-6.592-22.293-7.872-133.163-1.877-164.715 7.275-38.379 36.949-69.12 76.48-79.232 16.341-4.181 117.589-10.347 266.624-16.235 88.811-3.52 100.117-4.075 101.013-4.949 0.405-0.427-12.075-15.424-27.733-33.365-15.68-17.92-32.277-37.291-36.907-43.072-28.373-35.349-34.965-81.557-16.832-117.888 6.933-13.888 26.453-39.232 43.029-55.893 25.749-25.835 52.267-43.115 81.664-53.205 14.187-4.843 18.304-5.525 33.259-5.44 29.547 0.171 49.131 8.683 88.064 38.315 98.261 74.816 215.381 189.333 326.208 319.019 27.648 32.341 36.736 44.075 43.541 56.149 27.136 48.085 25.344 108.672-4.544 154.048-4.523 6.848-19.051 25.195-32.277 40.789-115.541 136.064-236.736 254.763-337.109 330.24-38.805 29.184-63.189 38.016-95.829 34.709z" />
<glyph unicode="&#xe915;" glyph-name="arrow-right" d="M651.392 776.533c-26.155-9.92-59.264-45.12-64.512-68.565-2.667-11.904-0.427-26.709 6.059-39.915 2.496-5.099 23.637-32.704 46.976-61.333l42.453-52.053-42.944-1.152c-23.616-0.619-84.8-2.005-135.957-3.051-189.12-3.861-399.936-11.008-410.453-13.888-20.224-5.547-38.421-21.013-45.547-38.741-3.691-9.173-3.925-11.968-3.925-49.835 0-37.632 0.256-40.704 3.84-49.621 7.125-17.685 21.611-30.741 41.515-37.483 9.835-3.328 17.451-3.947 74.944-6.016 130.901-4.736 259.093-8.171 462.741-12.395l55.701-1.152-42.389-52.011c-23.36-28.672-44.437-56.213-46.955-61.333-6.464-13.248-8.725-28.053-6.059-39.957 5.376-24 39.787-60.16 65.323-68.651 12.971-4.309 30.208-2.88 44.139 3.691 24.832 11.691 119.211 106.389 186.432 187.072 40.277 48.363 70.336 88.832 76.757 103.339 12.373 27.947 10.731 57.493-4.587 82.923-28.821 47.851-113.131 145.003-187.797 216.384-60.971 58.304-70.827 65.088-95.573 65.813-8.725 0.277-16-0.469-20.181-2.069z" />
<glyph unicode="&#xe916;" glyph-name="arrow-up-bold" d="M486.677 946.261c-22.656-4.053-48.192-15.424-66.709-29.696-15.275-11.755-73.28-61.867-109.355-94.443-41.003-37.035-138.411-134.187-168.064-167.616-46.699-52.672-91.179-108.565-102.4-128.683-10.475-18.837-15.083-35.456-15.147-54.784-0.043-14.869 0.661-19.157 5.483-33.28 10.005-29.227 26.752-55.168 51.968-80.448 17.579-17.6 44.437-38.336 57.963-44.736 29.141-13.781 63.531-12.736 94.571 2.88 14.379 7.253 21.077 12.501 64.213 50.283 18.624 16.32 34.197 29.333 34.603 28.907 0.896-0.875 1.621-15.787 5.056-102.805 5.803-147.307 11.989-248.363 16.213-264.832 9.152-35.819 36.224-64.725 69.888-74.688 5.163-1.515 20.523-3.499 34.133-4.395 50.389-3.285 121.472-1.067 139.947 4.395 33.707 9.963 60.736 38.869 69.909 74.752 4.395 17.152 12.523 155.477 17.216 292.928 1.067 31.445 2.453 61.312 3.072 66.368l1.109 9.216 34.667-30.165c44.309-38.528 49.728-42.773 64-49.963 31.403-15.808 66.709-16.683 95.403-2.368 14.293 7.147 39.936 27.008 57.131 44.288 25.429 25.557 42.027 51.243 51.947 80.384 4.608 13.589 5.504 18.709 5.483 31.573-0.043 29.312-8.853 50.624-35.584 85.995-74.219 98.197-185.344 212.288-317.419 325.845-50.795 43.669-66.069 53.632-94.72 61.76-14.72 4.203-49.685 5.995-64.576 3.328z" />
<glyph unicode="&#xe917;" glyph-name="arrow-up" d="M486.827 901.035c-16.683-4.48-32.32-14.293-72.96-45.803-27.627-21.419-50.432-40.853-84.672-72.107-50.133-45.739-127.637-125.888-138.325-143.019-10.283-16.512-12.928-37.525-6.72-53.803 9.877-26.048 44.693-58.411 68.117-63.36 12.203-2.56 26.667-0.384 39.68 5.995 5.099 2.496 32.704 23.616 61.333 46.955l52.053 42.432 0.363-7.936c0.192-4.373 1.173-53.248 2.176-108.629 2.667-145.344 10.411-417.365 12.907-453.12 2.261-32.448 16.811-55.275 41.6-65.259 8.917-3.584 11.989-3.84 49.621-3.84s40.704 0.256 49.621 3.84c17.685 7.125 30.741 21.611 37.483 41.515 3.328 9.813 3.947 17.472 6.016 74.091 4.629 126.080 8.427 267.456 12.395 462.763l1.152 56.555 52.053-42.411c28.629-23.339 56.235-44.459 61.333-46.955 20.971-10.283 41.067-9.323 59.925 2.88 21.397 13.824 42.709 38.528 48.64 56.384 4.309 12.971 2.88 30.208-3.669 44.117-13.461 28.523-121.237 133.824-211.264 206.357-30.037 24.213-66.453 50.539-77.141 55.765-18.773 9.195-42.645 11.733-61.717 6.592z" />
<glyph unicode="&#xe918;" glyph-name="asterisk-1" d="M488.789 948.053c-16.981-1.771-26.283-4.203-37.099-9.685-17.067-8.64-30.592-27.925-37.12-52.928-3.264-12.459-3.605-21.248-5.248-134.507-0.96-66.645-2.005-121.429-2.325-121.749-0.299-0.341-30.379 16.256-66.816 36.843-93.483 52.8-130.688 73.408-142.805 79.040-32.768 15.275-65.728 13.077-88.939-5.931-16.192-13.291-43.968-60.757-49.899-85.291-2.411-10.005-2.517-13.547-0.789-23.616 3.456-20.267 14.549-38.357 32.661-53.397 7.275-6.016 107.051-66.261 179.605-108.437 18.496-10.752 33.643-19.925 33.643-20.395 0.021-0.469-17.045-10.816-37.888-22.976-86.037-50.176-168.192-99.947-176.597-106.944-17.536-14.635-27.968-32.064-31.509-52.715-1.643-9.6-1.493-13.312 0.875-23.211 5.931-24.533 33.707-72 49.899-85.291 3.84-3.157 11.563-7.872 17.131-10.475 9.28-4.352 11.733-4.736 29.739-4.629 17.216 0.085 21.184 0.683 32.32 4.885 13.781 5.184 61.205 31.211 179.84 98.645 21.419 12.181 39.211 21.867 39.531 21.547s1.365-55.125 2.325-121.771c1.621-112.469 2.005-122.112 5.184-134.272 7.957-30.464 23.744-49.664 47.509-57.856 5.397-1.856 18.837-4.267 29.888-5.376 24.469-2.453 55.381 0.043 70.763 5.717 23.701 8.725 39.040 27.584 46.805 57.515 3.136 12.117 3.52 22.208 5.141 134.272 0.96 66.624 2.005 121.408 2.304 121.685 0.299 0.299 23.467-12.437 51.499-28.309 104.768-59.371 155.52-87.104 167.893-91.776 11.2-4.224 15.168-4.821 32.384-4.907 18.645-0.107 20.203 0.171 31.189 5.376 19.307 9.152 38.571 32.768 54.997 67.477 11.157 23.509 13.952 36.16 11.371 51.264-2.837 16.469-11.691 32.619-25.387 46.229-11.285 11.243-53.355 37.248-180.075 111.36-22.272 13.013-40.491 24.064-40.491 24.533s14.4 9.195 31.957 19.392c17.579 10.197 64.661 38.059 104.619 61.931 81.835 48.853 90.197 55.275 101.611 78.357 8.491 17.088 10.603 31.147 6.955 45.909-5.845 23.744-27.925 63.040-45.611 81.195-22.272 22.869-57.856 26.773-93.291 10.24-12.267-5.696-33.344-17.365-135.061-74.709-40.683-22.912-74.219-41.429-74.539-41.109s-1.365 55.104-2.325 121.728c-1.621 112.875-1.984 122.091-5.205 134.507-8.811 34.005-28.096 53.995-57.941 60.075-15.104 3.072-45.611 4.309-62.677 2.539z" />
<glyph unicode="&#xe919;" glyph-name="asterisk-2" d="M308.565 901.931c-26.709-4.501-78.933-36.565-92.245-56.619-13.824-20.821-15.381-48.299-4.331-76.459 3.755-9.579 38.656-73.045 90.453-164.437 15.872-28.032 28.437-51.392 27.904-51.904-0.512-0.533-54.336-1.579-119.595-2.325-73.621-0.832-122.603-2.069-129.109-3.243-32.427-5.888-56.021-23.701-64.661-48.853-5.44-15.829-7.808-46.336-5.419-70.187 1.109-11.051 3.541-24.555 5.419-29.995 8.149-23.68 27.456-39.488 57.813-47.381 12.117-3.157 22.101-3.541 134.272-5.184 66.645-0.96 121.408-2.005 121.707-2.283s-12.459-23.445-28.331-51.477c-51.797-91.392-86.699-154.859-90.453-164.437-5.205-13.248-7.104-22.955-7.147-36.587-0.085-25.835 9.195-42.88 33.344-61.163 18.24-13.824 51.669-30.955 67.968-34.88 26.133-6.251 53.461 4.885 76.053 30.976 6.571 7.595 64.747 103.595 109.397 180.544 10.752 18.517 19.925 33.643 20.395 33.621s13.056-20.928 27.968-46.464c55.253-94.613 93.611-157.909 101.397-167.317 15.104-18.197 32.32-28.608 53.269-32.213 14.528-2.496 27.52 0.448 50.752 11.456 34.709 16.427 58.325 35.691 67.477 54.997 5.205 10.987 5.483 12.544 5.376 31.189-0.085 17.131-0.683 21.205-4.8 32.107-4.843 12.8-29.077 57.195-87.616 160.448-18.261 32.235-32.96 58.859-32.64 59.157s55.104 1.365 121.749 2.325c112.96 1.664 122.069 2.005 134.507 5.248 33.664 8.747 52.843 27.093 60.373 57.707 3.947 16.128 3.947 63.275 0 79.403-5.824 23.723-18.389 39.616-39.573 50.048-21.76 10.709-24.555 10.923-156.352 12.437-65.621 0.747-119.744 1.813-120.299 2.368s10.475 21.227 24.512 45.931c40.683 71.637 81.387 144.619 87.893 157.568 10.325 20.608 12.352 28.693 12.352 49.493 0 16.811-0.469 19.797-4.587 28.565-6.485 13.845-11.883 20.309-25.92 31.061-23.317 17.856-55.445 33.856-74.133 36.885-29.248 4.757-60.949-12.693-81.92-45.099-8.661-13.397-69.269-115.221-99.371-166.976-10.752-18.496-19.947-33.643-20.416-33.643-0.469-0.021-9.195 14.357-19.392 31.915-10.176 17.579-38.080 64.704-61.973 104.704-48.235 80.789-54.741 89.344-77.099 101.077-9.749 5.12-28.587 10.155-35.243 9.429-0.939-0.107-5.312-0.789-9.728-1.536z" />
<glyph unicode="&#xe91a;" glyph-name="at-sign" d="M512 948.651c-114.901-4.693-220.821-43.413-308.864-112.875-20.693-16.32-62.229-57.835-78.933-78.869-95.339-120.085-133.589-280.875-103.68-435.904 31.957-165.589 143.531-294.144 302.059-348.032 60.501-20.565 129.259-29.589 193.259-25.344 32.704 2.155 63.232 7.445 80.192 13.888 22.933 8.725 41.685 26.517 49.429 46.912 3.243 8.512 3.925 13.653 3.925 29.12 0 30.869-6.976 45.547-26.069 54.933-8.576 4.224-11.648 4.8-25.131 4.715-8.448-0.043-29.312-1.387-46.379-2.987-39.424-3.691-92.075-3.797-116.395-0.256-121.771 17.792-217.109 94.677-259.797 209.515-6.059 16.32-12.373 40.875-16.341 63.531-4.672 26.709-4.267 92.117 0.725 119.403 27.52 150.123 139.584 272.427 282.112 307.904 119.829 29.824 241.557 2.475 328-73.685 45.397-40 80.405-98.453 93.653-156.352 4.373-19.051 6.080-60.416 3.392-81.28-7.403-57.152-32.277-102.016-68.843-124.203-13.781-8.384-24.512-11.648-41.728-12.736-14.293-0.875-34.773 2.645-40.448 6.955-2.283 1.749-0.896 12.907 11.797 94.997 9.195 59.371 14.421 98.069 14.443 107.008 0.064 32.704-16.576 61.909-46.933 82.432-60.139 40.64-145.899 55.531-221.397 38.464-45.888-10.368-88.363-34.517-120.896-68.715-37.397-39.317-59.861-87.232-67.392-143.787-14.613-109.739 38.848-203.52 133.227-233.728 26.219-8.405 46.528-10.923 79.915-9.899 39.339 1.195 65.685 6.955 96.939 21.184l12.992 5.931 10.048-5.056c22.443-11.285 62.443-21.589 101.269-26.048 25.28-2.901 71.147-1.173 93.013 3.52 47.019 10.048 85.333 31.317 118.528 65.792 41.451 43.051 67.072 99.648 77.973 172.288 4.224 28.203 4.267 86.101 0.085 113.493-14.485 94.571-54.613 176.149-118.016 239.872-86.507 86.912-203.435 133.995-342.187 137.749-13.611 0.363-30.507 0.427-37.547 0.149zM558.080 525.952c6.037-1.579 7.808-2.859 8.235-5.995 1.088-7.659-12.032-141.035-13.995-142.357-11.776-7.808-37.632-10.987-53.12-6.485-17.152 4.971-29.611 23.147-32.363 47.211-2.56 22.4 4.971 58.731 16.277 78.528 5.077 8.875 16.512 20.651 23.936 24.64 12.203 6.549 35.221 8.555 51.029 4.459z" />
<glyph unicode="&#xe91b;" glyph-name="band-aid" d="M671.573 948.693c-75.883-5.355-144.469-33.301-204.8-83.435-55.936-46.507-322.112-312.704-372.864-372.885-58.005-68.821-89.408-161.728-82.261-243.541 1.109-12.949 3.563-30.741 5.419-39.531 26.347-124.48 131.861-229.995 256.235-256.213 96.725-20.416 203.051 9.003 285.632 79.040 58.219 49.344 319.595 310.72 368.939 368.939 21.568 25.429 38.251 51.285 52.544 81.451 43.883 92.672 43.712 192.704-0.491 280.512-48.875 97.131-144.043 167.787-245.717 182.4-18.069 2.603-49.152 4.224-62.635 3.264zM563.861 693.803c25.984-6.635 39.936-16.384 87.915-61.376 46.933-43.989 87.936-90.368 97.643-110.421 17.941-37.013 15.125-81.515-7.296-115.84-24.555-37.568-150.997-163.989-188.693-188.693-18.88-12.352-34.624-17.173-59.435-18.197-47.104-1.92-68.715 11.051-144.149 86.549-75.989 76.075-88.896 97.813-86.549 145.792 1.259 25.493 6.101 40.192 20.096 60.864 24.235 35.776 148.501 159.936 184.683 184.512 14.293 9.707 27.456 15.104 46.485 19.072 10.155 2.112 37.035 0.875 49.301-2.261zM500.437 604.032c-11.691-5.824-24.875-20.416-28.608-31.659-11.755-35.349 24.427-67.797 58.091-52.096 12.011 5.611 27.264 22.464 30.656 33.877 3.243 10.923 3.264 13.952 0.107 24.512-7.445 24.96-36.501 37.205-60.245 25.365zM622.72 497.301c-10.219-1.515-13.931-3.605-25.152-14.144-11.584-10.901-17.259-22.464-17.259-35.157 0-28.928 28.331-49.387 55.744-40.277 11.413 3.797 26.389 17.344 32.149 29.099 7.701 15.765 4.971 36.117-6.528 48.448-8.683 9.323-24.427 14.165-38.955 12.032zM389.248 488.789c-13.227-4.032-28.629-18.261-34.795-32.171-9.344-21.077 1.024-46.784 22.592-56.021 7.957-3.413 24.875-3.349 33.003 0.128 9.387 4.011 25.024 19.499 29.653 29.355 9.899 21.12 1.152 45.461-20.352 56.576-6.485 3.349-22.379 4.48-30.101 2.133zM494.080 375.723c-12.395-5.781-27.349-22.507-30.827-34.517-7.979-27.456 12.309-53.867 41.408-53.867 12.971 0 25.387 6.336 36.267 18.56 14.165 15.893 17.408 34.475 8.917 51.008-10.283 19.989-35.2 28.416-55.765 18.816z" />
<glyph unicode="&#xe91c;" glyph-name="bar-countdown-1" d="M482.005 947.989c-44.437-2.56-84.203-10.219-127.872-24.597-74.923-24.64-139.456-64.512-196.331-121.259-55.488-55.36-94.912-118.528-120.021-192.363-36.352-106.901-36.373-216.576-0.043-323.392 25.109-73.813 64.469-136.96 120.085-192.555 125.717-125.717 305.792-175.232 478.251-131.499 86.656 21.973 165.739 67.179 230.080 131.52 55.168 55.189 94.677 118.208 119.531 190.72 19.285 56.299 27.072 103.296 27.072 163.435 0 47.019-3.648 77.675-14.443 121.173-35.605 143.445-133.717 264.448-267.008 329.323-77.099 37.547-162.624 54.507-249.301 49.493zM502.613 814.677c17.813-6.699 33.109-22.059 40.043-40.235 8.576-22.528 13.995-128.725 10.389-203.563-3.008-62.656-6.080-94.037-10.027-102.955-10.347-23.403-37.995-36.544-62.144-29.525-11.221 3.285-18.219 8.341-51.883 37.696-65.259 56.917-153.728 151.125-167.445 178.325-6.251 12.416-6.4 13.163-6.4 31.616 0 17.899 0.299 19.477 5.611 30.293 6.72 13.632 18.795 25.195 43.819 41.92 36.715 24.533 88.853 46.549 129.941 54.869 35.349 7.147 52.16 7.531 68.096 1.557z" />
<glyph unicode="&#xe91d;" glyph-name="bar-countdown-2" d="M482.005 947.989c-44.437-2.56-84.203-10.219-127.872-24.597-74.923-24.64-139.456-64.512-196.331-121.259-55.488-55.36-94.912-118.528-120.021-192.363-36.352-106.901-36.373-216.576-0.043-323.392 25.109-73.813 64.469-136.96 120.085-192.555 125.717-125.717 305.792-175.232 478.251-131.499 86.656 21.973 165.739 67.179 230.080 131.52 55.168 55.189 94.677 118.208 119.531 190.72 19.285 56.299 27.072 103.296 27.072 163.435 0 47.019-3.648 77.675-14.443 121.173-35.605 143.445-133.717 264.448-267.008 329.323-77.099 37.547-162.624 54.507-249.301 49.493zM486.763 813.248c27.755-8.555 51.029-33.195 58.688-62.080 8.512-32.064 8.896-204.523 0.619-273.195-4.203-34.923-29.163-60.587-63.936-65.771-65.195-9.707-173.632-11.115-250.027-3.243-29.269 3.029-46.165 10.283-63.509 27.264-8.619 8.427-13.12 14.635-17.899 24.725-5.739 12.053-6.464 15.168-7.019 29.696-1.152 30.187 12.181 78.357 33.771 122.048 44.587 90.197 122.112 157.909 216.789 189.312 43.52 14.421 71.296 17.813 92.523 11.243z" />
<glyph unicode="&#xe91e;" glyph-name="bar-countdown-3" d="M482.005 947.989c-44.437-2.56-84.203-10.219-127.872-24.597-74.923-24.64-139.456-64.512-196.331-121.259-55.488-55.36-94.912-118.528-120.021-192.363-36.352-106.901-36.373-216.576-0.043-323.392 25.109-73.813 64.469-136.96 120.085-192.555 125.717-125.717 305.792-175.232 478.251-131.499 86.656 21.973 165.739 67.179 230.080 131.52 55.168 55.189 94.677 118.208 119.531 190.72 19.285 56.299 27.072 103.296 27.072 163.435 0 47.019-3.648 77.675-14.443 121.173-35.605 143.445-133.717 264.448-267.008 329.323-77.099 37.547-162.624 54.507-249.301 49.493zM488.107 814.699c21.568-4.864 43.221-23.211 54.443-46.101 7.936-16.213 10.261-28.16 14.784-76.544 3.904-41.664 2.645-124.587-2.539-168.107-5.803-48.448-10.304-75.605-14.4-86.869-9.365-25.643-57.045-92.395-95.125-133.163-34.795-37.227-106.624-94.357-131.179-104.341-33.088-13.44-69.035-6.827-93.163 17.152-28.992 28.8-62.933 99.349-73.941 153.621-5.739 28.373-7.467 46.336-7.445 77.653 0.021 44.864 5.077 77.141 18.304 117.12 40.384 121.984 140.757 214.677 265.685 245.355 30.293 7.445 45.803 8.469 64.576 4.224z" />
<glyph unicode="&#xe91f;" glyph-name="bar-countdown-4" d="M482.005 947.989c-44.437-2.56-84.203-10.219-127.872-24.597-74.923-24.64-139.456-64.512-196.331-121.259-55.488-55.36-94.912-118.528-120.021-192.363-36.352-106.901-36.373-216.576-0.043-323.392 25.109-73.813 64.469-136.96 120.085-192.555 125.717-125.717 305.792-175.232 478.251-131.499 86.656 21.973 165.739 67.179 230.080 131.52 55.168 55.189 94.677 118.208 119.531 190.72 19.285 56.299 27.072 103.296 27.072 163.435 0 47.019-3.648 77.675-14.443 121.173-35.605 143.445-133.717 264.448-267.008 329.323-77.099 37.547-162.624 54.507-249.301 49.493zM488.363 813.291c18.795-5.824 34.475-17.6 45.653-34.347 13.333-19.989 15.083-28.395 22.251-107.52 15.36-169.856 15.381-289.749 0.043-452.971-6.208-66.091-7.424-73.173-15.531-89.6-17.323-35.093-51.861-54.443-88.085-49.323-31.083 4.416-69.717 16.555-101.973 32.064-39.296 18.901-70.869 41.237-101.568 71.872-59.712 59.563-96.704 134.997-107.605 219.307-2.56 19.755-2.56 70.656 0 90.453 5.056 39.296 16.405 78.784 32.384 112.64 30.528 64.725 78.976 119.531 140.096 158.528 31.723 20.245 82.304 40.789 119.744 48.661 21.205 4.437 40.683 4.523 54.592 0.235z" />
<glyph unicode="&#xe920;" glyph-name="bar-countdown-5" d="M482.005 947.989c-44.437-2.56-84.203-10.219-127.872-24.597-74.923-24.64-139.456-64.512-196.331-121.259-55.488-55.36-94.912-118.528-120.021-192.363-36.352-106.901-36.373-216.576-0.043-323.392 25.109-73.813 64.469-136.96 120.085-192.555 125.717-125.717 305.792-175.232 478.251-131.499 86.656 21.973 165.739 67.179 230.080 131.52 55.168 55.189 94.677 118.208 119.531 190.72 19.285 56.299 27.072 103.296 27.072 163.435 0 47.019-3.648 77.675-14.443 121.173-35.605 143.445-133.717 264.448-267.008 329.323-77.099 37.547-162.624 54.507-249.301 49.493zM483.84 814.315c14.549-3.883 26.816-11.285 38.4-23.125 13.483-13.781 21.632-29.504 24.768-47.723 6.613-38.336 7.467-162.688 1.664-237.952-1.515-19.52-2.517-37.269-2.219-39.467 0.384-2.837 9.152-10.859 30.4-27.776 56.619-45.099 94.976-81.771 137.835-131.861 36.203-42.261 41.067-49.728 46.592-71.296 5.632-22.037 3.861-39.296-6.144-59.712-7.595-15.467-17.664-25.835-38.336-39.509-66.197-43.776-152.832-66.389-230.827-60.245-134.741 10.624-249.557 87.915-308.48 207.659-26.347 53.568-37.845 102.933-37.909 162.987-0.064 46.464 4.864 78.677 18.24 118.827 37.483 112.704 125.056 200.171 237.333 237.12 40.661 13.397 69.248 17.28 88.683 12.075z" />
<glyph unicode="&#xe921;" glyph-name="bar-countdown-6" d="M482.005 947.989c-44.437-2.56-84.203-10.219-127.872-24.597-74.923-24.64-139.456-64.512-196.331-121.259-55.488-55.36-94.912-118.528-120.021-192.363-36.352-106.901-36.373-216.576-0.043-323.392 25.109-73.813 64.469-136.96 120.085-192.555 125.717-125.717 305.792-175.232 478.251-131.499 86.656 21.973 165.739 67.179 230.080 131.52 55.168 55.189 94.677 118.208 119.531 190.72 19.285 56.299 27.072 103.296 27.072 163.435 0 47.019-3.648 77.675-14.443 121.173-35.605 143.445-133.717 264.448-267.008 329.323-77.099 37.547-162.624 54.507-249.301 49.493zM483.84 814.315c27.264-7.296 50.155-29.205 59.947-57.344 2.667-7.68 4.651-19.371 6.123-36.011 2.965-33.941 2.923-169.28-0.107-206.955-1.259-15.787-1.856-29.12-1.344-29.632s20.352 0.427 44.096 2.091c75.947 5.333 191.701 3.435 220.672-3.605 39.893-9.685 67.413-43.221 67.413-82.133 0-27.221-14.293-77.12-33.109-115.627-36.8-75.264-95.552-134.485-170.155-171.477-59.136-29.333-127.915-42.965-191.403-37.973-134.741 10.624-249.557 87.915-308.48 207.659-26.347 53.568-37.845 102.933-37.909 162.987-0.064 46.464 4.864 78.677 18.24 118.827 37.483 112.704 125.056 200.171 237.333 237.12 40.661 13.397 69.248 17.28 88.683 12.075z" />
<glyph unicode="&#xe922;" glyph-name="bar-countdown-7" d="M482.005 947.989c-44.437-2.56-84.203-10.219-127.872-24.597-74.923-24.64-139.456-64.512-196.331-121.259-55.488-55.36-94.912-118.528-120.021-192.363-36.352-106.901-36.373-216.576-0.043-323.392 25.109-73.813 64.469-136.96 120.085-192.555 125.717-125.717 305.792-175.232 478.251-131.499 86.656 21.973 165.739 67.179 230.080 131.52 55.168 55.189 94.677 118.208 119.531 190.72 19.285 56.299 27.072 103.296 27.072 163.435 0 47.019-3.648 77.675-14.443 121.173-35.605 143.445-133.717 264.448-267.008 329.323-77.099 37.547-162.624 54.507-249.301 49.493zM505.408 811.968c20.949-10.325 35.648-31.403 39.275-56.32 1.237-8.576 1.984-50.389 2.112-118.592l0.192-105.365 34.133 35.264c18.773 19.413 54.869 55.147 80.213 79.445 40.128 38.443 47.701 44.949 58.645 50.368 11.115 5.504 14.4 6.315 28.16 6.912 17.92 0.768 29.397-2.347 42.901-11.627 22.059-15.189 58.752-77.077 74.987-126.485 13.675-41.643 18.453-72.725 18.368-119.275-0.107-60.245-11.541-109.44-37.888-162.987-44.48-90.389-121.408-157.568-216.747-189.291-77.355-25.749-158.165-25.749-235.52 0-95.339 31.723-172.267 98.901-216.747 189.291-26.347 53.568-37.845 102.933-37.909 162.987-0.064 46.507 4.821 78.101 18.453 119.467 33.707 102.187 111.979 186.005 212.608 227.648 36.587 15.168 79.317 24.96 106.411 24.427 15.488-0.299 18.176-0.875 28.352-5.867z" />
<glyph unicode="&#xe923;" glyph-name="bar-progress-1" d="M482.005 947.989c-44.437-2.56-84.203-10.219-127.872-24.597-74.923-24.64-139.456-64.512-196.331-121.259-55.488-55.36-94.912-118.528-120.021-192.363-36.352-106.901-36.373-216.576-0.043-323.392 25.109-73.813 64.469-136.96 120.085-192.555 125.717-125.717 305.792-175.232 478.251-131.499 86.656 21.973 165.739 67.179 230.080 131.52 55.168 55.189 94.677 118.208 119.531 190.72 19.285 56.299 27.072 103.296 27.072 163.435 0 47.019-3.648 77.675-14.443 121.173-35.605 143.445-133.717 264.448-267.008 329.323-77.099 37.547-162.624 54.507-249.301 49.493zM579.477 814.848c47.147-8.064 98.027-28.651 139.947-56.619 25.003-16.683 37.099-28.245 43.819-41.899 5.312-10.816 5.611-12.395 5.611-30.293 0-18.453-0.149-19.2-6.4-31.616-13.717-27.2-102.187-121.408-167.445-178.325-33.664-29.355-40.661-34.411-51.883-37.696-24.149-7.019-51.797 6.123-62.165 29.525-7.509 16.981-13.312 132.096-10.197 202.155 2.453 54.848 4.8 82.688 8.128 96.213 8.235 33.472 39.659 55.744 74.069 52.501 4.224-0.405 16.149-2.176 26.517-3.947z" />
<glyph unicode="&#xe924;" glyph-name="bar-progress-2" d="M482.005 947.989c-44.437-2.56-84.203-10.219-127.872-24.597-74.923-24.64-139.456-64.512-196.331-121.259-55.488-55.36-94.912-118.528-120.021-192.363-36.352-106.901-36.373-216.576-0.043-323.392 25.109-73.813 64.469-136.96 120.085-192.555 125.717-125.717 305.792-175.232 478.251-131.499 86.656 21.973 165.739 67.179 230.080 131.52 55.168 55.189 94.677 118.208 119.531 190.72 19.285 56.299 27.072 103.296 27.072 163.435 0 47.019-3.648 77.675-14.443 121.173-35.605 143.445-133.717 264.448-267.008 329.323-77.099 37.547-162.624 54.507-249.301 49.493zM589.184 813.141c53.653-10.923 114.581-39.893 157.12-74.731 56.235-46.037 97.813-106.005 119.637-172.651 22.101-67.435 19.435-100.203-10.539-129.536-17.344-16.981-34.24-24.235-63.509-27.264-76.437-7.872-183.339-6.507-250.027 3.2-34.731 5.077-59.712 30.784-63.936 65.813-3.989 32.96-5.952 81.387-5.909 144.107 0.064 68.309 2.325 113.344 6.464 128.853 10.155 38.037 44.096 65.536 81.024 65.664 6.912 0.021 20.245-1.536 29.675-3.456z" />
<glyph unicode="&#xe925;" glyph-name="bar-progress-3" d="M482.005 947.989c-44.437-2.56-84.203-10.219-127.872-24.597-74.923-24.64-139.456-64.512-196.331-121.259-55.488-55.36-94.912-118.528-120.021-192.363-36.352-106.901-36.373-216.576-0.043-323.392 25.109-73.813 64.469-136.96 120.085-192.555 125.717-125.717 305.792-175.232 478.251-131.499 86.656 21.973 165.739 67.179 230.080 131.52 55.168 55.189 94.677 118.208 119.531 190.72 19.285 56.299 27.072 103.296 27.072 163.435 0 47.019-3.648 77.675-14.443 121.173-35.605 143.445-133.717 264.448-267.008 329.323-77.099 37.547-162.624 54.507-249.301 49.493zM588.8 812.949c40.789-7.872 93.163-29.653 128.768-53.525 91.968-61.675 150.72-156.501 164.885-266.197 1.088-8.448 1.984-28.8 1.984-45.227 0-31.573-1.749-49.771-7.467-77.653-11.264-54.933-44.8-124.587-73.92-153.621-18.304-18.24-44.032-26.88-69.376-23.296-18.987 2.688-31.445 8.405-55.019 25.216-77.312 55.232-128.235 108.757-177.877 186.965-16.341 25.728-19.989 35.413-24.427 64.747-8.491 56.043-10.795 83.307-11.648 138.069-0.875 55.189 1.067 89.557 7.253 129.707 4.992 32.256 22.571 57.728 48.832 70.699 20.011 9.877 33.899 10.731 68.011 4.117z" />
<glyph unicode="&#xe926;" glyph-name="bar-progress-4" d="M482.005 947.989c-44.437-2.56-84.203-10.219-127.872-24.597-74.923-24.64-139.456-64.512-196.331-121.259-55.488-55.36-94.912-118.528-120.021-192.363-36.352-106.901-36.373-216.576-0.043-323.392 25.109-73.813 64.469-136.96 120.085-192.555 125.717-125.717 305.792-175.232 478.251-131.499 86.656 21.973 165.739 67.179 230.080 131.52 55.168 55.189 94.677 118.208 119.531 190.72 19.285 56.299 27.072 103.296 27.072 163.435 0 47.019-3.648 77.675-14.443 121.173-35.605 143.445-133.717 264.448-267.008 329.323-77.099 37.547-162.624 54.507-249.301 49.493zM589.184 813.141c112.021-22.827 210.965-101.44 260.885-207.275 10.603-22.464 22.315-57.344 26.944-80.213 5.696-28.139 7.424-46.229 7.424-77.653 0-44.8-5.035-77.099-18.283-117.12-27.392-82.731-84.032-154.581-158.165-200.619-39.403-24.448-93.845-44.672-136.683-50.731-36.288-5.12-71.595 14.72-88.363 49.664-7.723 16.107-9.131 24.299-15.189 88.405-15.424 163.456-15.445 281.707-0.085 452.821 7.189 80 8.939 88.491 22.379 108.629 21.483 32.171 53.909 43.307 99.136 34.091z" />
<glyph unicode="&#xe927;" glyph-name="bar-progress-5" d="M482.005 947.989c-44.437-2.56-84.203-10.219-127.872-24.597-74.923-24.64-139.456-64.512-196.331-121.259-55.488-55.36-94.912-118.528-120.021-192.363-36.352-106.901-36.373-216.576-0.043-323.392 25.109-73.813 64.469-136.96 120.085-192.555 125.717-125.717 305.792-175.232 478.251-131.499 86.656 21.973 165.739 67.179 230.080 131.52 55.168 55.189 94.677 118.208 119.531 190.72 19.285 56.299 27.072 103.296 27.072 163.435 0 47.019-3.648 77.675-14.443 121.173-35.605 143.445-133.717 264.448-267.008 329.323-77.099 37.547-162.624 54.507-249.301 49.493zM589.184 813.141c25.429-5.163 60.523-17.301 85.824-29.632 114.027-55.616 190.955-163.264 207.467-290.283 2.923-22.549 2.432-74.795-0.939-97.28-5.995-40.213-16.747-75.221-34.091-110.933-58.411-120.277-174.315-198.699-309.419-209.365-77.995-6.144-164.629 16.469-230.827 60.245-20.672 13.675-30.741 24.043-38.336 39.509-10.005 20.416-11.776 37.675-6.144 59.712 5.525 21.589 10.155 28.672 47.211 72.149 39.787 46.699 85.525 90.219 139.776 133.035 14.080 11.115 26.283 20.8 27.093 21.504 0.875 0.747 0.128 19.819-1.707 44.523-3.819 51.435-4.373 172.373-0.96 213.696 3.093 37.781 11.179 57.109 31.531 75.413 22.208 19.968 46.848 25.195 83.52 17.707z" />
<glyph unicode="&#xe928;" glyph-name="bar-progress-6" d="M482.005 947.989c-44.437-2.56-84.203-10.219-127.872-24.597-74.923-24.64-139.456-64.512-196.331-121.259-55.488-55.36-94.912-118.528-120.021-192.363-36.352-106.901-36.373-216.576-0.043-323.392 25.109-73.813 64.469-136.96 120.085-192.555 125.717-125.717 305.792-175.232 478.251-131.499 86.656 21.973 165.739 67.179 230.080 131.52 55.168 55.189 94.677 118.208 119.531 190.72 19.285 56.299 27.072 103.296 27.072 163.435 0 47.019-3.648 77.675-14.443 121.173-35.605 143.445-133.717 264.448-267.008 329.323-77.099 37.547-162.624 54.507-249.301 49.493zM589.184 813.141c25.429-5.163 60.523-17.301 85.824-29.632 114.027-55.616 190.955-163.264 207.467-290.283 2.923-22.549 2.432-74.795-0.939-97.28-8.384-56.171-28.075-107.883-58.496-153.6-22.976-34.517-44.779-58.667-75.947-84.139-72.064-58.88-169.749-89.749-261.12-82.56-120.853 9.536-225.216 72.213-290.389 174.379-27.947 43.861-52.224 113.856-52.224 150.699 0 23.509 10.944 47.36 28.715 62.592 10.069 8.64 29.056 17.984 41.259 20.331 33.579 6.4 146.304 7.872 218.112 2.816 23.744-1.664 43.584-2.603 44.096-2.091s-0.085 13.845-1.344 29.632c-3.008 37.589-3.072 172.949-0.085 206.955 3.221 36.992 11.456 56.405 31.552 74.475 22.208 19.968 46.848 25.195 83.52 17.707z" />
<glyph unicode="&#xe929;" glyph-name="bar-progress-7" d="M482.005 947.989c-44.437-2.56-84.203-10.219-127.872-24.597-74.923-24.64-139.456-64.512-196.331-121.259-55.488-55.36-94.912-118.528-120.021-192.363-36.352-106.901-36.373-216.576-0.043-323.392 25.109-73.813 64.469-136.96 120.085-192.555 125.717-125.717 305.792-175.232 478.251-131.499 86.656 21.973 165.739 67.179 230.080 131.52 55.168 55.189 94.677 118.208 119.531 190.72 19.285 56.299 27.072 103.296 27.072 163.435 0 47.019-3.648 77.675-14.443 121.173-35.605 143.445-133.717 264.448-267.008 329.323-77.099 37.547-162.624 54.507-249.301 49.493zM589.483 813.248c23.637-5.056 58.325-16.768 80.213-27.093 116.971-55.168 196.032-164.011 212.779-292.928 2.923-22.549 2.432-74.795-0.939-97.28-6.144-41.195-16.896-75.797-35.029-112.64-44.48-90.389-121.408-157.568-216.747-189.291-77.355-25.749-158.165-25.749-235.52 0-95.339 31.723-172.267 98.901-216.747 189.291-26.347 53.568-37.845 102.933-37.909 162.987-0.064 46.571 4.736 77.675 18.389 119.275 16.235 49.408 52.928 111.296 74.987 126.485 13.504 9.28 24.981 12.395 42.901 11.627 13.76-0.597 17.045-1.408 28.16-6.912 10.944-5.419 18.517-11.925 58.645-50.368 25.344-24.299 61.44-60.053 80.213-79.467l34.133-35.307 0.192 105.387c0.213 115.605 0.875 125.589 9.237 142.144 8.768 17.408 19.883 27.904 37.312 35.285 8.725 3.691 11.328 3.989 29.205 3.243 10.795-0.448 27.221-2.453 36.523-4.437z" />
<glyph unicode="&#xe92a;" glyph-name="bar" d="M482.005 947.989c-44.437-2.56-84.203-10.219-127.872-24.597-74.923-24.64-139.456-64.512-196.331-121.259-55.488-55.36-94.912-118.528-120.021-192.363-36.352-106.901-36.373-216.576-0.043-323.392 25.109-73.813 64.469-136.96 120.085-192.555 125.717-125.717 305.792-175.232 478.251-131.499 86.656 21.973 165.739 67.179 230.080 131.52 55.168 55.189 94.677 118.208 119.531 190.72 19.285 56.299 27.072 103.296 27.072 163.435 0 47.019-3.648 77.675-14.443 121.173-35.605 143.445-133.717 264.448-267.008 329.323-77.099 37.547-162.624 54.507-249.301 49.493zM564.053 817.301c68.203-9.259 133.227-38.251 188.288-83.904 59.243-49.131 103.488-120.469 122.069-196.779 7.509-30.891 9.963-52.587 9.963-88.619 0-61.867-11.221-110.571-37.888-164.693-59.115-119.893-173.696-197.035-308.459-207.659-86.656-6.827-178.432 20.224-249.536 73.536-68.992 51.755-118.613 126.827-138.901 210.197-7.573 31.125-9.984 52.608-9.984 88.619 0.043 61.867 11.221 110.507 37.888 164.693 37.013 75.221 94.656 132.864 169.813 169.792 68.352 33.6 140.459 45.184 216.747 34.816z" />
<glyph unicode="&#xe92b;" glyph-name="battery-charging" d="M369.493 820.587c-78.229-0.853-205.76-5.973-229.547-9.216-60.949-8.299-108.587-53.931-118.485-113.536-6.635-39.915-10.197-127.381-10.197-250.688 0-122.389 3.563-209.088 10.197-248.981 9.792-58.901 57.216-104.875 117.12-113.515 40.533-5.845 161.771-9.408 320.512-9.365 167.595 0.021 288.576 3.861 324.224 10.261 38.101 6.848 70.293 27.797 91.349 59.456 16.256 24.405 21.611 43.051 24.939 86.571 2.027 26.731 2.091 26.987 6.123 26.987 10.283 0 31.637 5.845 44.885 12.267 18.645 9.067 35.861 25.771 44.16 42.88 21.099 43.477 24.853 178.133 6.912 248.277-7.317 28.651-24.213 49.216-51.285 62.421-14.357 7.019-21.995 9.195-42.667 12.203l-6.187 0.896-1.152 17.472c-3.115 46.549-8.64 68.928-22.592 91.371-19.541 31.381-51.392 54.464-86.336 62.571-21.184 4.928-96.981 8.683-224 11.136-79.317 1.536-101.632 1.579-197.973 0.533zM478.784 623.36c10.731-5.461 21.547-17.024 25.301-26.987 1.557-4.16 6.272-24.789 10.496-45.824 4.203-21.035 8.064-38.656 8.576-39.189 0.512-0.512 25.664 1.963 55.893 5.483 56.384 6.549 61.781 6.613 73.067 0.981 20.565-10.283 28.843-41.408 15.936-59.968-5.888-8.491-184.277-152.448-197.867-159.701-7.189-3.819-10.688-4.544-22.187-4.544-16.085-0.021-26.88 4.075-37.269 14.101-10.944 10.56-13.867 18.667-22.677 62.997l-8.192 41.109-5.184-0.747c-2.859-0.405-27.733-3.371-55.275-6.592-41.323-4.843-51.584-5.547-58.539-4.053-18.837 4.032-32.171 21.483-32.171 42.112 0 20.949-2.325 18.624 101.525 101.696 50.795 40.661 94.443 75.264 96.981 76.928 13.909 9.131 36.181 10.069 51.584 2.197z" />
<glyph unicode="&#xe92c;" glyph-name="battery-full" d="M369.493 820.587c-78.229-0.853-205.76-5.973-229.547-9.216-60.949-8.299-108.587-53.931-118.485-113.536-6.635-39.915-10.197-127.381-10.197-250.688 0-122.389 3.563-209.088 10.197-248.981 9.792-58.901 57.216-104.875 117.12-113.515 40.533-5.845 161.771-9.408 320.512-9.365 167.595 0.021 288.576 3.861 324.224 10.261 38.101 6.848 70.293 27.797 91.349 59.456 16.256 24.405 21.611 43.051 24.939 86.571 2.027 26.731 2.091 26.987 6.123 26.987 10.283 0 31.637 5.845 44.885 12.267 18.645 9.067 35.861 25.771 44.16 42.88 21.099 43.477 24.853 178.133 6.912 248.277-7.317 28.651-24.213 49.216-51.285 62.421-14.357 7.019-21.995 9.195-42.667 12.203l-6.187 0.896-1.152 17.472c-3.115 46.549-8.64 68.928-22.592 91.371-19.541 31.381-51.392 54.464-86.336 62.571-21.184 4.928-96.981 8.683-224 11.136-79.317 1.536-101.632 1.579-197.973 0.533zM642.56 668.267c63.744-3.307 73.835-6.059 90.901-24.747 14.485-15.829 16.725-25.856 21.099-93.973 2.539-39.637 2.539-163.456 0-203.093-4.416-68.949-6.571-78.229-21.824-94.72-10.304-11.115-21.461-17.323-36.416-20.224-22.315-4.309-95.296-6.229-238.080-6.229-140.523 0-214.208 1.899-237.227 6.123-20.715 3.819-39.445 18.069-47.915 36.544-8.427 18.325-11.776 69.717-11.776 180.053s3.349 161.728 11.776 180.053c8.981 19.584 28.352 33.621 50.603 36.672 9.365 1.28 61.355 3.883 116.779 5.824 34.581 1.216 268.821-0.555 302.080-2.283z" />
<glyph unicode="&#xe92d;" glyph-name="battery-low" d="M369.493 820.587c-78.229-0.853-205.76-5.973-229.547-9.216-60.949-8.299-108.587-53.931-118.485-113.536-6.635-39.915-10.197-127.381-10.197-250.688 0-122.389 3.563-209.088 10.197-248.981 9.792-58.901 57.216-104.875 117.12-113.515 40.533-5.845 161.771-9.408 320.512-9.365 167.595 0.021 288.576 3.861 324.224 10.261 38.101 6.848 70.293 27.797 91.349 59.456 16.256 24.405 21.611 43.051 24.939 86.571 2.027 26.731 2.091 26.987 6.123 26.987 10.283 0 31.637 5.845 44.885 12.267 18.645 9.067 35.861 25.771 44.16 42.88 21.099 43.477 24.853 178.133 6.912 248.277-7.317 28.651-24.213 49.216-51.285 62.421-14.357 7.019-21.995 9.195-42.667 12.203l-6.187 0.896-1.152 17.472c-3.115 46.549-8.64 68.928-22.592 91.371-19.541 31.381-51.392 54.464-86.336 62.571-21.184 4.928-96.981 8.683-224 11.136-79.317 1.536-101.632 1.579-197.973 0.533zM359.765 667.819c1.579-1.579 2.048-52.736 2.048-219.947 0-200.917-0.213-218.091-2.837-220.245-2.155-1.792-8.341-2.24-26.027-1.899-38.72 0.747-101.12 3.904-111.083 5.611-21.312 3.669-40.128 17.792-48.768 36.608-8.427 18.325-11.776 69.717-11.776 180.053 0 110.677 3.349 161.579 11.861 180.352 9.003 19.861 28.587 33.536 52.309 36.544 33.259 4.224 130.859 6.336 134.272 2.923z" />
<glyph unicode="&#xe92e;" glyph-name="battery-medium" d="M369.493 820.587c-78.229-0.853-205.76-5.973-229.547-9.216-60.949-8.299-108.587-53.931-118.485-113.536-6.635-39.915-10.197-127.381-10.197-250.688 0-122.389 3.563-209.088 10.197-248.981 9.792-58.901 57.216-104.875 117.12-113.515 40.533-5.845 161.771-9.408 320.512-9.365 167.595 0.021 288.576 3.861 324.224 10.261 38.101 6.848 70.293 27.797 91.349 59.456 16.256 24.405 21.611 43.051 24.939 86.571 2.027 26.731 2.091 26.987 6.123 26.987 10.283 0 31.637 5.845 44.885 12.267 18.645 9.067 35.861 25.771 44.16 42.88 21.099 43.477 24.853 178.133 6.912 248.277-7.317 28.651-24.213 49.216-51.285 62.421-14.357 7.019-21.995 9.195-42.667 12.203l-6.187 0.896-1.152 17.472c-3.115 46.549-8.64 68.928-22.592 91.371-19.541 31.381-51.392 54.464-86.336 62.571-21.184 4.928-96.981 8.683-224 11.136-79.317 1.536-101.632 1.579-197.973 0.533zM455.68 668.16c3.371-3.371 3.413-5.696 3.413-220.16v-216.747l-7.36-7.36-75.243 1.067c-78.208 1.109-138.475 3.584-154.624 6.379-21.333 3.691-40.128 17.792-48.768 36.608-8.427 18.325-11.776 69.717-11.776 180.053s3.349 161.728 11.776 180.053c8.981 19.584 28.352 33.621 50.603 36.672 6.037 0.811 31.317 2.347 56.192 3.392 59.52 2.496 67.456 2.688 124.16 3.115 46.187 0.32 48.363 0.192 51.627-3.072z" />
<glyph unicode="&#xe92f;" glyph-name="battery-plug" d="M279.893 883.157c-97.493-3.264-151.595-6.827-168.107-11.072-49.984-12.885-84.651-53.547-91.221-106.965-8.704-70.933-12.907-251.413-8.576-369.344 1.899-51.776 5.824-114.389 8.576-136.896 3.776-30.805 14.848-54.336 35.029-74.453 17.92-17.899 38.848-29.163 63.573-34.261 17.493-3.627 167.467-11.008 224.299-11.051l14.933-0.021-0.128 72.533-23.403 11.499c-28.864 14.165-50.091 29.184-74.304 52.48-38.059 36.629-64.128 76.032-72.832 110.123-7.744 30.272-8.683 110.187-1.664 144.363 3.328 16.299 13.333 39.488 23.403 54.208 7.36 10.752 25.365 28.587 36.715 36.331l9.813 6.699 0.021 43.883c0.043 49.813 1.536 60.672 10.965 79.723 13.845 27.947 38.827 48.427 68.821 56.427 13.312 3.541 39.424 3.499 53.312-0.085 37.461-9.685 70.293-43.648 77.12-79.808 2.24-11.968 4.8-15.339 4.8-6.336 0 13.056 13.845 41.877 26.368 54.869 14.869 15.403 32.832 26.325 51.691 31.36 12.821 3.413 40.96 3.413 53.781 0 29.419-7.851 55.211-29.013 68.8-56.427 9.429-19.051 10.923-29.909 10.965-79.723l0.021-43.883 9.813-6.741c11.563-7.936 30.101-26.688 37.909-38.315 7.765-11.563 17.92-34.112 21.312-47.232 7.637-29.717 7.168-117.867-0.811-149.291-8.619-33.941-35.392-74.304-73.6-110.976-23.531-22.549-44.992-37.653-73.493-51.648l-23.403-11.499-0.064-36.416-0.064-36.437 32 1.088c114.283 3.861 166.485 6.805 185.493 10.496 25.664 4.971 47.531 16.683 64.64 34.624 23.424 24.576 32.064 46.699 36.096 92.629 1.429 16.277 2.603 32.811 2.624 36.736 0 8.128-2.987 7.061 30.123 10.752 18.965 2.133 27.669 5.013 39.531 13.141 21.291 14.592 30.101 37.44 38.997 101.227 3.797 27.179 4.288 109.056 0.853 137.387-4.843 39.765-13.589 76.971-20.907 88.939-4.523 7.381-18.517 20.16-26.688 24.32-9.536 4.864-18.731 6.933-41.429 9.28l-19.627 2.048-2.069 28.16c-3.605 49.173-7.424 66.027-19.563 86.763-7.296 12.437-30.208 35.349-42.645 42.645-12.117 7.083-29.675 13.248-44.096 15.467-11.541 1.771-48.277 4.139-110.933 7.189-46.357 2.24-347.029 3.371-402.773 1.493zM349.013 744.555c-7.744-2.752-15.915-8.768-20.629-15.147-8.597-11.669-9.237-17.579-9.237-85.248v-62.656l-7.659-1.152c-18.837-2.816-42.795-20.608-54.336-40.341-9.237-15.829-11.413-30.251-11.413-75.691-0.021-54.208 1.707-64.619 14.251-86.613 33.067-57.899 104.064-110.613 148.992-110.613h7.339l0.491-109.653 0.469-109.653 5.035-9.088c22.123-39.957 80.661-36.309 96.491 6.037 3.307 8.811 3.435 13.184 3.435 115.755v106.603l6.4 0.021c19.477 0.107 46.805 10.688 73.621 28.523 27.712 18.453 62.059 55.723 77.504 84.096 11.093 20.416 11.861 24.917 12.672 75.947 1.045 63.915-2.219 77.76-23.787 100.8-11.285 12.075-28.373 21.909-41.408 23.872l-7.573 1.131-0.512 65.963c-0.469 62.784-0.661 66.304-4.075 73.621-12.501 26.859-45.376 33.856-67.136 14.272-14.571-13.099-14.528-12.843-15.125-85.525l-0.533-63.573h-125.888l-0.533 63.573c-0.491 56.811-0.875 64.299-3.605 70.4-9.024 20.053-33.707 31.339-53.248 24.341z" />
<glyph unicode="&#xe930;" glyph-name="bed" d="M41.387 794.411c-18.965-9.493-25.472-22.379-28.224-56-2.667-32.597-2.667-548.416 0-580.949 2.24-27.221 5.973-37.632 17.493-48.832 10.155-9.856 19.968-12.629 44.373-12.587 24.683 0.064 33.771 3.285 45.333 16.149 12.48 13.888 14.4 22.955 15.659 73.579l1.067 42.411 21.483-1.024c39.893-1.877 568.021-3.008 637.589-1.365 37.547 0.896 68.373 1.536 68.501 1.408 0.128-0.107 1.024-20.949 1.963-46.293 1.515-39.872 2.219-47.36 5.312-55.531 4.075-10.837 13.227-20.629 23.083-24.747 15.893-6.635 73.429-6.251 88.064 0.576 9.131 4.245 11.477 6.144 17.451 14.059 8.768 11.648 9.579 19.285 11.669 108.949 1.067 45.653 1.536 88.981 1.045 96.299-1.472 21.952-11.371 37.376-30.549 47.637l-7.339 3.904-837.12 0.875-0.043 123.307c-0.043 155.755-2.24 254.613-5.909 266.923-4.267 14.293-12.416 24.512-24.64 30.869-10.475 5.44-11.093 5.547-33.28 5.547-21.781 0-23.019-0.192-32.981-5.163zM517.973 692.117c-27.477-1.515-32.448-2.773-46.336-11.755-16.192-10.475-24.768-23.168-28.8-42.645-8.235-39.872-6.443-160.704 2.795-188.011 2.965-8.747 10.837-18.88 18.901-24.299 15.403-10.347 1.813-9.835 265.067-9.835 265.771 0 250.859-0.597 265.557 10.709 3.947 3.029 9.536 9.728 12.459 14.891 5.163 9.152 5.291 9.941 5.184 30.72-0.427 93.589-65.536 178.731-154.581 202.155-23.147 6.101-79.232 11.776-160.192 16.256-42.517 2.368-150.485 3.435-180.053 1.813zM273.557 626.325c-13.483-2.923-34.624-13.888-46.059-23.893-12.395-10.859-25.067-30.507-30.571-47.403-3.733-11.456-4.565-17.28-4.629-31.936-0.149-30.336 9.365-53.291 31.189-75.264 42.283-42.539 107.627-42.475 150.293 0.149 20.843 20.843 30.763 44.672 30.891 74.368 0.149 32.448-13.419 61.589-38.315 82.325-11.307 9.429-33.28 20.075-46.251 22.4-13.419 2.432-33.451 2.112-46.549-0.747z" />
<glyph unicode="&#xe931;" glyph-name="bell-notification" d="M484.693 948.032c-158.848-12.395-290.176-128.491-321.792-284.459-2.944-14.528-6.251-45.312-10.987-102.4-7.36-89.003-8.789-101.696-13.803-123.413-9.109-39.36-22.613-68.245-60.736-129.963-17.557-28.395-25.173-42.432-28.693-52.907-17.408-51.669 5.995-99.008 56.277-113.92 27.392-8.107 107.968-15.637 224.427-20.971 59.776-2.731 305.451-2.731 365.227 0 116.459 5.333 197.035 12.864 224.427 20.971 50.283 14.912 73.685 62.251 56.277 113.92-3.52 10.475-11.136 24.512-28.693 52.907-29.205 47.275-45.163 78.059-52.992 102.293-6.549 20.245-12.224 46.293-13.845 63.509-0.576 6.101-1.387 12.715-1.771 14.677l-0.725 3.584-14.549-3.883c-22.933-6.123-44.181-8.149-74.027-7.019-38.037 1.429-69.76 9.408-102.187 25.707-70.613 35.456-119.957 99.499-137.387 178.24-4.949 22.421-5.355 75.285-0.747 98.24 10.517 52.309 36.032 100.032 72.363 135.381l10.88 10.603-14.165 4.267c-41.579 12.587-90.368 17.963-132.779 14.635zM770.709 925.675c-68.203-9.941-130.155-61.568-152.021-126.699-27.349-81.493-0.128-167.637 69.099-218.603 33.024-24.32 80.171-38.464 120.491-36.139 49.813 2.859 92.501 21.611 126.464 55.552 24.491 24.491 42.283 55.147 51.285 88.384 4.16 15.275 4.523 19.349 4.48 48.256-0.043 34.88-1.728 44.203-13.099 72.512-20.352 50.709-65.28 92.16-118.955 109.781-24.427 8.021-60.736 10.901-87.744 6.955zM335.637 46.741c17.493-32.149 51.733-64.448 86.379-81.493 32.448-15.936 59.371-21.525 97.664-20.224 29.525 1.003 48.043 5.056 73.664 16.128 38.059 16.448 75.989 50.624 95.019 85.589l4.288 7.872h-361.301l4.288-7.872z" />
<glyph unicode="&#xe932;" glyph-name="bell" d="M167.808 952.533c-11.264-3.691-17.621-8.405-30.528-22.699-68.544-75.883-110.869-167.509-126.933-274.731-7.552-50.389-6.421-62.912 7.040-78.229 18.496-20.992 49.963-22.123 69.611-2.453 10.027 10.027 13.013 18.219 15.488 42.539 10.091 98.901 45.653 181.803 107.2 249.835 15.445 17.067 19.029 24.832 18.965 41.024-0.064 17.92-9.429 32.811-25.984 41.259-10.027 5.141-25.131 6.635-34.859 3.456zM832 953.323c-9.856-2.731-14.379-5.163-21.504-11.584-9.813-8.853-15.147-20.779-15.168-33.92-0.021-15.616 3.733-24.277 16.747-38.549 63.424-69.568 99.136-152.171 109.525-253.163 2.411-23.488 5.461-31.744 15.403-41.685 19.648-19.648 51.115-18.539 69.568 2.432 7.36 8.341 12.309 20.693 12.309 30.613 0 11.456-5.547 52.651-10.24 76.053-11.136 55.659-30.635 109.376-56.363 155.349-26.645 47.595-69.333 101.056-87.936 110.165-9.557 4.672-24 6.592-32.341 4.288zM484.693 948.032c-143.829-11.115-265.643-106.816-311.232-244.544-12.267-37.013-14.016-49.067-23.296-159.915-4.16-49.621-8.149-87.659-10.325-98.091-8.917-42.923-22.080-72.107-60.949-135.040-28.16-45.653-34.411-60.075-35.776-82.603-2.496-41.493 21.248-74.837 61.845-86.869 27.392-8.107 107.968-15.637 224.427-20.971 59.776-2.731 305.451-2.731 365.227 0 116.459 5.333 197.035 12.864 224.427 20.971 50.325 14.912 73.685 62.251 56.256 114.005-3.563 10.603-11.051 24.384-28.715 52.907-37.909 61.205-51.584 90.453-60.693 129.877-4.992 21.589-6.4 34.219-13.845 122.88-7.296 86.656-9.045 99.797-17.131 128.491-34.773 123.392-132.501 218.283-256.811 249.387-34.176 8.533-78.208 12.224-113.408 9.515zM335.637 46.741c7.232-13.312 25.6-36.523 37.696-47.659 39.253-36.139 86.037-54.549 138.667-54.549 64.192 0 123.243 29.248 161.216 79.851 5.973 7.979 12.8 18.027 15.147 22.357l4.288 7.872h-361.301l4.288-7.872z" />
<glyph unicode="&#xe933;" glyph-name="bird-1" d="M554.667 925.12c-79.296-11.413-143.104-49.963-199.531-120.512-40.597-50.795-75.669-113.835-136.725-245.675-43.925-94.891-78.827-162.923-106.368-207.36l-9.515-15.36 14.869-1.109c41.088-3.029 113.899-0.725 138.603 4.395 76.779 15.915 137.6 68.011 160.235 137.28 6.613 20.224 9.067 36.651 10.283 68.501 1.067 28.139 1.621 32.384 5.099 39.040 7.851 15.147 20.779 23.019 37.717 23.019s29.824-7.872 37.739-23.019c10.517-20.117 3.669-98.069-12.523-142.827-34.005-93.995-118.571-164.523-222.464-185.557-43.989-8.896-146.347-10.048-212.331-2.347l-16.192 1.877-7.317-8.256c-10.859-12.331-18.859-29.611-21.184-45.824-4.331-30.443 9.408-62.741 33.899-79.573 13.717-9.451 23.957-11.883 60.267-14.4 76.395-5.248 204.949-10.603 276.331-11.499l28.032-0.341 18.219-54.613c10.027-30.037 19.861-57.835 21.888-61.76 9.429-18.432 33.984-26.453 54.272-17.707 10.709 4.608 16.341 10.283 21.248 21.376 6.336 14.336 5.312 20.885-10.795 69.44l-14.507 43.755 31.765 1.067c72.149 2.432 116.203 4.693 129.259 6.677l13.845 2.091 23.531-58.069c12.949-31.936 25.28-61.525 27.392-65.749 7.808-15.552 21.355-24.192 38.251-24.341 17.643-0.171 33.536 11.029 40.128 28.309 5.333 13.973 3.605 20.459-22.763 84.928-13.291 32.448-24.149 59.477-24.149 60.011 0 0.555 7.488 4.949 16.619 9.771 49.237 25.92 90.667 63.061 120.768 108.245 36.8 55.253 55.040 125.909 48.768 188.757-3.307 33.024-13.312 83.285-26.837 134.827-4.309 16.427-7.936 31.083-8.064 32.555-0.128 1.515 7.616 8.917 17.707 16.96 21.952 17.493 53.973 48.469 64.341 62.251 21.141 28.096 23.829 48.64 8.512 65.237-19.499 21.163-59.243 31.723-137.707 36.587-19.883 1.237-33.728 2.816-34.411 3.904-0.64 1.024-6.976 9.685-14.101 19.243-45.717 61.291-101.824 99.392-166.912 113.365-20.885 4.48-71.893 5.781-95.189 2.432zM683.648 718.443c5.141-3.179 10.283-8.341 13.483-13.483 4.907-7.957 5.184-9.387 5.739-29.803 0.661-24.917-0.683-30.827-9.408-41.024-16.981-19.84-46.507-20.267-63.509-0.917-9.045 10.304-10.432 15.403-10.432 38.357 0 28.693 5.141 39.765 22.571 48.576 7.723 3.904 10.709 4.48 21.12 3.989 9.899-0.448 13.632-1.493 20.437-5.696z" />
<glyph unicode="&#xe934;" glyph-name="book-open" d="M104.597 880.619c-5.824-1.259-16.96-5.589-24.747-9.621-27.819-14.421-48.96-42.219-55.019-72.277-4.864-24.299-10.219-105.493-13.077-198.827-4.608-151.083 3.776-366.272 15.851-406.080 9.301-30.72 35.691-58.048 67.819-70.251 12.779-4.864 31.616-7.637 73.664-10.859 106.048-8.128 198.464-33.6 292.139-80.512l18.347-9.173v776l-10.667 4.736c-106.773 47.381-182.037 67.221-291.413 76.8-35.883 3.157-58.624 3.179-72.896 0.064zM843.947 880.491c-107.328-9.728-183.339-29.909-288.853-76.736l-10.667-4.736v-776l18.347 9.173c93.675 46.912 186.091 72.384 292.139 80.512 42.048 3.221 60.885 5.995 73.664 10.859 32.128 12.203 58.517 39.531 67.819 70.251 4.075 13.419 6.272 31.445 9.643 79.253 10.581 149.504 9.877 336.107-1.792 480.427-3.392 42.069-5.76 53.675-14.592 71.573-13.312 27.029-42.005 49.472-71.040 55.637-14.016 2.965-40.341 2.88-74.667-0.213zM200.875 712.427c63.125-5.227 125.141-19.989 166.869-39.765 13.056-6.187 16.832-8.875 20.672-14.677 12.011-18.112 4.352-41.301-15.808-47.957-8.725-2.859-16.619-1.28-39.168 7.851-47.573 19.243-99.115 29.291-166.187 32.405-32.384 1.493-39.744 4.48-46.293 18.731-3.84 8.384-4.053 17.707-0.576 26.027 6.229 14.891 15.104 19.115 40.384 19.157 10.027 0.021 28.075-0.768 40.107-1.771zM888.32 711.040c8.128-3.733 11.755-7.552 15.296-16 7.275-17.408-1.92-37.461-19.371-42.219-3.392-0.917-20.757-2.453-38.592-3.413-63.68-3.413-116.8-14.592-160.32-33.728-7.573-3.328-16.939-6.421-20.821-6.848-26.901-3.051-44.117 26.197-28.928 49.152 3.84 5.803 7.616 8.491 20.672 14.677 51.221 24.277 131.883 40.683 203.051 41.301 18.197 0.171 23.403-0.363 29.013-2.923zM209.92 519.509c55.936-4.843 116.501-19.499 155.285-37.589 16.405-7.659 21.077-11.456 25.984-20.992 2.56-5.013 3.243-8.939 2.688-15.68-2.005-24-24.405-34.517-49.984-23.467-51.435 22.251-121.792 36.288-182.613 36.48-19.051 0.064-27.285 2.688-35.307 11.285-8.277 8.853-10.624 22.272-5.909 33.579 2.859 6.805 13.227 16.149 19.477 17.536 2.581 0.555 5.44 1.301 6.379 1.643 2.411 0.896 40.725-0.789 64-2.795zM888.555 519.125c24.576-12.843 23.467-45.888-1.941-57.643-5.163-2.411-10.965-3.179-23.893-3.221-60.821-0.192-131.179-14.229-182.613-36.48-12.949-5.589-25.941-5.973-34.773-1.003-18.133 10.197-20.693 36.011-5.035 50.603 9.792 9.152 53.035 25.621 91.221 34.752 57.28 13.717 142.208 20.736 157.035 12.992zM200.875 328.427c62.848-5.184 124.181-19.691 165.483-39.147 14.464-6.805 18.133-9.344 22.059-15.275 12.011-18.133 4.373-41.323-15.808-47.979-8.725-2.859-16.619-1.28-39.168 7.851-47.573 19.243-99.115 29.291-166.187 32.405-32.384 1.493-39.744 4.48-46.293 18.731-3.84 8.384-4.053 17.707-0.576 26.027 6.229 14.891 15.104 19.115 40.384 19.157 10.027 0.021 28.075-0.768 40.107-1.771zM816.512 321.024c18.965-11.115 19.733-40.896 1.365-53.013-4.757-3.157-11.904-5.077-28.544-7.723-40.277-6.4-70.208-14.592-103.616-28.331-20.203-8.32-27.499-9.152-38.165-4.288-17.216 7.808-22.912 29.781-12.011 46.272 3.349 5.035 7.893 8.491 17.707 13.397 35.243 17.643 110.507 37.248 144.469 37.653 9.536 0.107 13.141-0.661 18.795-3.968z" />
<glyph unicode="&#xe935;" glyph-name="book" d="M372.907 947.925c-99.648-2.539-172.608-7.083-191.851-11.989-17.024-4.331-40.939-16.405-54.72-27.627-22.443-18.261-40.533-46.976-47.765-75.776-3.605-14.4-6.891-52.971-10.24-120-3.648-73.003-5.397-238.464-4.757-453.12 0.576-195.989 0.96-223.168 3.371-232.96 9.323-37.952 34.88-62.272 77.269-73.515 12.565-3.328 20.544-3.755 99.84-5.312 89.813-1.749 568.491-0.469 634.88 1.707 34.795 1.131 37.077 1.429 44.117 5.44 27.947 15.957 17.856 56.299-14.848 59.264l-10.496 0.939 0.171 114.731 9.472 5.973c11.563 7.296 28.48 25.067 36.139 37.952 7.744 13.077 13.888 32.043 15.317 47.381 1.813 19.349-0.661 420.075-2.859 465.067-6.293 128.981-8.235 145.195-20.672 172.608-12.352 27.243-36.075 51.541-63.851 65.451-9.493 4.757-23.189 10.112-30.464 11.925-40.768 10.197-287.125 16.427-468.053 11.861zM712.021 764.053c22.037-10.859 30.656-37.163 19.115-58.347-5.205-9.579-11.371-15.147-22.101-20.011-6.315-2.837-18.923-3.051-199.595-3.52-121.813-0.299-196.885 0.149-203.797 1.216-22.613 3.499-36.181 17.877-37.419 39.637-0.405 7.083 0.192 13.952 1.515 17.259 5.355 13.611 17.408 24.064 30.784 26.731 4.139 0.832 96.619 1.387 205.504 1.237l197.973-0.256 8.021-3.947zM519.68 550.635c8.789-4.011 18.325-14.635 22.187-24.725 5.824-15.275 0.789-33.856-12.459-45.824-12.181-11.008-9.195-10.752-124.928-10.752h-104.96l-8.853 4.672c-14.869 7.829-22.72 20.949-22.72 37.973 0 17.664 7.509 30.101 23.040 38.144 6.699 3.477 8.96 3.541 114.347 3.584 100.416 0.021 107.968-0.171 114.347-3.072zM742.976 115.776l89.877-1.131v-101.44l-39.68-1.323c-53.504-1.771-548.864-1.323-596.053 0.533-33.173 1.323-38.549 1.941-46.059 5.291-19.264 8.597-22.080 14.485-22.080 46.293 0 27.605 1.323 32.256 11.392 39.851 12.928 9.728 16.192 10.112 98.56 11.307 108.843 1.6 398.613 1.941 504.043 0.619z" />
<glyph unicode="&#xe936;" glyph-name="bookmark-book" d="M412.16 948.075c-92.352-1.984-186.539-6.741-205.653-10.389-40.811-7.808-76.693-32.96-97.173-68.139-12.629-21.675-17.536-40.128-20.437-76.8-7.36-92.885-8.64-162.261-8.64-467.627 0.021-312.405-0.427-297.835 9.877-319.851 5.931-12.629 19.221-27.499 32.363-36.224 5.376-3.563 17.408-9.109 26.731-12.288 14.379-4.928 20.523-6.037 40.107-7.232 12.736-0.768 110.315-1.92 216.853-2.581 200.427-1.216 504.811 1.429 521.195 4.544 21.376 4.053 32.384 25.472 23.339 45.419-4.736 10.389-14.656 16.427-28.459 17.301l-10.901 0.704v113.493l7.253 4.736c24.789 16.235 40.405 36.352 51.008 65.728l4.011 11.051 0.533 151.893c0.896 250.005-4.885 431.381-14.997 471.040-13.696 53.739-58.219 95.275-112.363 104.853-41.067 7.275-295.893 13.355-434.645 10.368zM613.547 862.763c40.363-0.875 86.741-2.112 103.061-2.795l29.653-1.195-1.131-83.797c-3.499-260.48-4.523-301.973-7.595-307.349-3.925-6.891-14.037-11.776-21.525-10.368-3.755 0.704-22.656 13.376-54.123 36.288-26.581 19.371-50.645 36.608-53.461 38.336-5.611 3.456-14.656 4.117-19.605 1.472-1.749-0.939-25.899-18.176-53.675-38.315-27.797-20.117-52.096-37.099-54.037-37.717-9.835-3.115-22.656 4.117-25.259 14.229-0.896 3.477-2.432 63.915-3.435 134.315-0.981 70.4-2.283 156.949-2.859 192.341l-1.045 64.32 9.131 0.64c18.645 1.28 84.672 1.109 155.904-0.405zM782.933 115.776l65.28-1.131v-101.291l-51.477-1.131c-70.208-1.536-509.269-1.173-570.603 0.469-53.291 1.451-58.432 2.283-70.464 11.456-9.323 7.104-11.115 13.547-11.115 39.851s1.792 32.747 11.115 39.851c12.864 9.813 15.787 10.219 82.411 11.328 88.853 1.515 468.203 1.92 544.853 0.597z" />
<glyph unicode="&#xe937;" glyph-name="bookmark-double" d="M537.6 948.736c-74.197-1.707-177.963-7.552-196.267-11.051-36.437-6.976-68.587-28.16-87.893-57.899-6.891-10.624-14.571-27.712-17.195-38.229l-1.216-4.949 16.875 1.088c106.496 6.912 278.187 5.547 397.867-3.136 49.472-3.605 67.413-7.744 97.536-22.549 61.227-30.080 100.8-88.107 107.627-157.909 6.315-64.619 8.619-161.365 8.64-362.048v-175.595l12.373 1.195c41.344 3.989 74.901 30.635 89.728 71.211l4.565 12.523-0.043 238.933c-0.043 232.213-0.875 282.048-5.973 354.133-2.901 40.917-7.424 59.157-19.989 80.747-7.509 12.885-26.837 33.237-39.616 41.728-12.757 8.448-32.512 16.811-47.019 19.84-34.048 7.168-222.507 14.208-320 11.968zM366.080 778.048c-79.616-1.771-179.84-7.765-199.68-11.947-14.485-3.029-34.261-11.371-47.019-19.84-12.779-8.491-32.107-28.843-39.616-41.728-12.565-21.589-17.088-39.829-19.989-80.747-5.099-72.192-5.931-121.856-5.973-354.133l-0.043-238.933 4.565-12.523c11.968-32.704 34.219-54.933 66.539-66.411 10.56-3.733 15.467-4.437 31.296-4.48 16.064-0.021 20.693 0.64 32.107 4.587 7.317 2.539 17.771 7.509 23.232 11.008 5.44 3.499 49.173 35.563 97.173 71.232s90.923 66.773 95.381 69.12c6.805 3.584 10.453 4.267 22.613 4.267s15.808-0.683 22.613-4.267c4.459-2.347 47.403-33.451 95.403-69.12 48.021-35.669 91.52-67.669 96.64-71.104 5.141-3.435 15.573-8.363 23.211-10.987 11.904-4.075 16.533-4.736 32.64-4.715 15.851 0.021 20.736 0.725 31.296 4.459 32.32 11.477 54.571 33.707 66.539 66.411l4.565 12.523-0.043 238.933c-0.043 232.213-0.875 282.048-5.973 354.133-2.901 40.917-7.424 59.157-19.989 80.747-7.509 12.885-26.837 33.237-39.616 41.728-12.757 8.448-32.512 16.811-47.019 19.84-34.176 7.189-221.803 14.165-320.853 11.947z" />
<glyph unicode="&#xe938;" glyph-name="bookmark-stars" d="M383.744 916.757c-11.84-4.416-21.632-11.349-27.477-19.456-3.221-4.48-26.048-46.912-50.731-94.315-24.661-47.403-45.717-87.040-46.763-88.085-1.067-1.045-19.968-5.419-42.027-9.728-170.069-33.301-160.491-30.912-174.101-43.221-12.928-11.669-20.352-34.24-17.067-51.904 0.939-5.12 3.84-13.333 6.421-18.24 2.987-5.675 29.333-36.16 72.107-83.413 56.341-62.229 67.349-75.2 66.987-78.955-0.213-2.453-5.845-47.872-12.501-100.907-8.64-68.928-11.84-99.456-11.179-107.051 1.728-19.733 13.547-37.035 32.043-46.827 6.144-3.264 10.069-3.925 22.869-3.968l15.424-0.021 182.464 89.899 180.245-89.835 12.565-0.64c14.784-0.747 22.485 1.344 34.325 9.28 16.277 10.944 24.896 27.456 24.832 47.616-0.021 6.571-5.461 55.189-12.075 108.032-6.635 52.843-12.053 96.768-12.053 97.6 0 0.853 30.72 35.477 68.267 76.971 78.165 86.379 77.653 85.675 77.632 109.931 0 13.291-0.64 16.661-4.715 24.96-5.333 10.88-18.688 24.277-28.16 28.267-3.499 1.472-49.984 11.2-103.317 21.653l-96.981 18.987-18.283 34.987c-10.069 19.243-31.317 59.947-47.211 90.453-18.155 34.795-31.403 58.155-35.541 62.677-9.515 10.368-22.421 16.213-37.525 16.981-7.637 0.384-14.592-0.256-18.475-1.728zM741.781 464.427l-47.189-52.096 11.243-89.259c11.947-95.083 12.437-104.491 6.635-126.805-6.357-24.363-22.784-49.344-43.243-65.707-12.608-10.091-22.315-15.275-38.763-20.8-17.195-5.76-49.109-5.696-66.901 0.128-6.848 2.24-46.4 20.928-87.893 41.515l-75.435 37.419-5.397-2.56c-6.443-3.072-4.928 4.885-15.851-83.861-9.088-73.792-9.173-78.421-1.493-93.781 4.843-9.707 16.085-20.928 26.133-26.091 10.304-5.269 27.819-7.061 37.739-3.84 3.648 1.195 46.4 21.781 94.997 45.739l88.363 43.584 90.261-44.928c89.387-44.48 90.368-44.907 102.784-45.675 15.552-0.981 28.139 3.285 39.595 13.355 10.027 8.832 18.155 25.045 19.285 38.507 0.555 6.677-3.157 41.792-11.243 106.411-6.656 53.035-12.288 98.517-12.501 101.056-0.363 3.925 9.643 15.765 66.048 78.187 36.544 40.448 68.267 76.203 70.485 79.467 6.421 9.451 9.323 19.456 9.365 32.277 0.043 23.189-12.629 43.755-32.32 52.48-6.891 3.051-34.283 9.131-90.112 19.989-44.117 8.597-81.835 16.021-83.819 16.491-2.965 0.725-11.797-8.192-50.773-51.2z" />
<glyph unicode="&#xe939;" glyph-name="bookmark" d="M453.973 948.736c-102.763-2.347-217.771-10.069-240.299-16.128-38.699-10.432-67.264-36.928-79.68-73.941-5.568-16.555-7.595-39.253-13.077-145.28-1.131-21.909-2.155-163.051-2.624-363.221l-0.789-327.36 3.712-12.267c4.395-14.421 9.365-23.403 19.2-34.56 28.437-32.299 80.299-38.485 115.307-13.739 5.483 3.883 55.424 45.44 110.997 92.373 66.496 56.149 104.619 87.189 111.467 90.773 21.248 11.072 46.4 11.072 67.605 0 6.869-3.584 45.077-34.688 111.467-90.773 55.573-46.933 105.515-88.491 110.997-92.373 28.395-20.032 68.053-20.373 98.197-0.832 17.429 11.328 28.48 25.963 35.648 47.339l4.395 13.056-0.768 326.165c-0.704 313.451-1.152 343.317-6.336 431.979-2.773 47.275-4.949 65.472-9.387 78.72-12.416 37.013-40.981 63.509-79.68 73.941-34.795 9.365-241.92 18.731-356.352 16.128z" />
<glyph unicode="&#xe93a;" glyph-name="books" d="M160.427 925.824c-34.133-2.155-53.739-4.736-64.299-8.448-25.813-9.088-45.931-30.613-54.208-58.069-2.517-8.341-5.824-48.149-6.016-72.107l-0.064-8.107h397.653l-0.064 8.107c-0.043 4.459-0.768 20.395-1.621 35.413-2.304 40.149-7.787 55.125-27.136 74.283-12.48 12.352-27.52 20.651-42.859 23.659-18.965 3.733-53.547 5.568-115.2 6.144-34.731 0.341-73.515-0.064-86.187-0.875zM708.267 809.621c-20.885-3.371-55.275-10.645-81.067-17.152-36.139-9.131-95.381-28.821-110.251-36.629-13.824-7.253-27.371-20.053-35.221-33.237-6.592-11.115-12.416-32.597-12.373-45.76 0.021-7.68 8.875-54.123 10.603-55.68 0.832-0.747 338.347 90.005 339.819 91.371 2.005 1.856-10.005 39.637-16.533 52.053-7.765 14.805-23.595 29.952-38.891 37.269-18.901 9.024-34.645 11.2-56.085 7.765zM33.557 679.68c-1.451-44.928-1.451-418.432 0-463.36l1.109-34.56h400l1.109 36.117c1.472 46.827 1.451 416.768 0 461.803l-1.109 34.56h-400l-1.109-34.56zM667.307 604.672c-94.315-25.301-171.733-46.251-172.032-46.528-2.347-2.347 65.067-257.963 100.821-382.357 12.715-44.224 14.592-49.429 17.557-48.939 4.331 0.725 341.077 90.901 341.675 91.499 3.029 2.987-110.229 426.283-115.392 431.275-0.619 0.576-78.293-19.627-172.629-44.949zM801.28 110.549c-92.928-24.875-169.6-45.824-170.389-46.549-2.005-1.856 10.005-39.637 16.533-52.053 15.403-29.291 50.475-48.896 83.029-46.379 16.256 1.259 57.835 9.515 93.013 18.453 36.395 9.259 95.488 28.907 110.251 36.672 13.824 7.253 27.371 20.053 35.221 33.237 6.592 11.115 12.416 32.597 12.373 45.76-0.021 7.68-8.875 54.144-10.603 55.68-0.256 0.213-76.501-19.947-169.429-44.821zM35.904 108.8c0.192-23.957 3.499-63.765 6.016-72.107 9.131-30.293 33.856-53.931 63.893-61.141 18.603-4.437 55.68-6.251 128.853-6.251s110.251 1.813 128.853 6.251c15.168 3.648 29.44 11.776 41.152 23.445 19.392 19.349 24.832 34.283 27.136 74.389 0.853 15.019 1.579 30.955 1.621 35.413l0.064 8.107h-397.653l0.064-8.107z" />
<glyph unicode="&#xe93b;" glyph-name="brain" d="M340.48 883.221c-25.387-3.755-55.36-14.805-81.216-29.973-44.245-25.941-91.221-73.024-125.867-126.187-15.168-23.275-33.259-56.619-31.915-58.816 0.619-0.981 3.285-1.792 5.952-1.792 8.427 0 37.504-6.635 55.637-12.715 39.040-13.056 78.699-37.845 84.288-52.672 5.077-13.44-0.149-30.336-11.755-38.016-13.333-8.832-25.323-7.317-43.648 5.483-29.739 20.8-69.504 34.155-104.725 35.2l-14.315 0.427-4.139-11.947c-18.091-52.096-30.144-110.976-34.795-169.813-2.837-35.904-1.024-111.509 3.456-144.789 14.613-108.16 53.931-183.424 118.059-226.048 11.712-7.765 38.123-21.696 41.152-21.696 0.341 0-1.472 8.32-4.011 18.475-14.443 57.451-7.509 118.080 18.517 162.24 8.725 14.784 16.427 19.819 30.336 19.819 13.291 0 23.36-5.973 28.267-16.747 4.992-11.008 4.224-19.072-3.243-34.539-12.651-26.176-17.344-45.824-17.344-72.576 0-27.243 7.040-56.491 19.989-83.029l6.208-12.779 31.701 0.789c27.029 0.661 34.155 1.429 48.256 5.184 50.581 13.419 91.755 46.549 112.277 90.368 9.856 21.035 11.904 31.851 11.947 62.997l0.021 26.709-13.056 12.203c-23.509 21.952-47.253 33.067-76.544 35.84-18.859 1.792-24.939 4.608-32.256 15.040-4.16 5.931-5.013 8.811-5.013 17.173 0 12.203 4.501 20.501 14.72 27.285 6.336 4.181 8.149 4.523 22.293 4.203 26.112-0.597 48.597-6.507 74.069-19.477l15.787-8.021v387.648l-16.64-1.024c-28.245-1.749-50.069-7.701-73.963-20.224-20.288-10.603-39.104-6.272-47.424 10.923-6.677 13.781-4.011 28.523 6.891 38.080 7.403 6.507 30.485 17.792 48.363 23.637 21.803 7.125 35.989 9.643 60.352 10.731l22.827 1.003-0.832 26.645c-0.96 30.869-4.949 47.467-17.109 70.912-8.747 16.875-26.347 35.136-41.664 43.221-20.779 10.987-50.667 14.976-79.893 10.645zM626.688 881.579c-35.947-9.771-62.336-36.757-75.136-76.885-5.44-17.045-7.125-29.461-7.125-52.373v-21.013h15.467c27.307 0 54.912-5.696 82.667-17.067 31.296-12.821 41.813-22.165 43.157-38.272 1.6-19.328-11.413-34.091-30.144-34.197-7.915-0.064-12.181 1.216-24.256 7.168-25.408 12.544-42.027 16.96-70.251 18.709l-16.64 1.024v-387.648l15.787 8.021c25.472 12.971 47.957 18.88 74.069 19.477 14.144 0.32 15.957-0.021 22.293-4.203 10.219-6.784 14.72-15.083 14.72-27.285 0-8.363-0.853-11.243-5.013-17.173-7.317-10.411-13.397-13.248-32.085-15.019-31.147-2.944-52.736-13.205-78.037-37.056l-11.733-11.072 0.021-26.688c0.043-31.104 2.091-41.92 11.947-62.955 20.523-43.819 61.696-76.949 112.277-90.368 14.101-3.755 21.227-4.523 48.256-5.184l31.701-0.789 6.208 12.779c12.949 26.539 19.989 55.787 19.989 83.029 0 26.901-4.907 47.339-17.301 72.192-4.608 9.237-6.571 15.381-6.549 20.48 0.085 17.131 12.352 30.272 29.504 31.616 13.461 1.067 22.272-4.331 31.509-19.328 26.603-43.136 33.984-105.067 19.392-163.072-2.56-10.219-4.181-18.56-3.605-18.56 0.555 0 8.32 3.648 17.216 8.128 44.032 22.080 81.429 60.907 104.576 108.629 28.373 58.432 41.941 129.451 41.984 219.627 0.043 65.088-5.653 112.64-20.715 173.056-5.717 22.891-18.091 62.315-20.309 64.683-2.24 2.368-37.973-1.835-55.381-6.528-21.312-5.739-41.301-14.635-58.645-26.155-8.107-5.376-17.429-10.816-20.715-12.053-13.291-5.035-30.891 1.984-37.504 14.976-4.075 7.979-4.587 21.973-1.045 28.736 7.744 14.784 46.635 38.379 83.712 50.773 18.112 6.080 47.189 12.715 55.616 12.715 2.667 0 5.333 0.789 5.931 1.771 1.451 2.347-17.387 36.821-32.832 60.096-19.392 29.227-37.973 51.861-61.504 74.944-41.195 40.384-80.469 64.256-124.715 75.797-23.573 6.144-59.093 7.317-76.757 2.517zM344.96 513.045c9.856-6.741 14.144-14.827 14.229-26.773 0.043-8.512-0.768-11.605-4.629-17.451-6.763-10.219-14.336-13.419-36.629-15.509-24.405-2.283-32.469-4.267-49.152-12.181-33.365-15.829-50.688-44.096-53.12-86.741-1.237-21.483-4.544-29.205-15.104-35.2-10.091-5.739-15.445-6.485-25.6-3.541-18.048 5.248-24.107 17.899-22.485 47.019 3.307 58.965 32.533 106.581 81.643 133.035 25.685 13.824 61.376 22.421 90.283 21.76 12.288-0.277 15.595-1.003 20.565-4.416zM728.533 515.307c83.925-12.352 138.155-70.272 142.955-152.64 1.685-29.077-4.352-41.749-22.443-47.019-9.984-2.901-15.317-2.219-25.323 3.264-10.581 5.803-14.187 14.123-15.381 35.477-2.411 42.603-19.755 70.912-53.12 86.741-16.683 7.915-24.747 9.899-49.152 12.181-22.059 2.069-29.867 5.312-36.352 15.083-10.965 16.576-4.352 39.253 13.803 47.211 6.912 3.029 23.147 2.923 45.013-0.299z" />
</font>
</defs>
</svg>
